<svg id="svg" version="1.1" xmlns="http://www.w3.org/2000/svg" xmlns:xlink="http://www.w3.org/1999/xlink" width="400" height="231.4785373608903" viewBox="0, 0, 400,231.4785373608903"><g id="svgg"><path id="path0" d="M310.417 0.285 C 309.081 0.406,307.935 0.580,307.871 0.672 C 307.807 0.764,306.765 0.968,305.556 1.125 C 304.346 1.282,303.322 1.510,303.279 1.631 C 303.237 1.753,302.944 1.852,302.630 1.852 C 301.922 1.852,300.016 2.275,299.508 2.546 C 299.301 2.656,298.754 2.817,298.292 2.903 C 297.831 2.990,297.454 3.139,297.454 3.235 C 297.454 3.331,296.829 3.542,296.065 3.704 C 295.301 3.866,294.676 4.072,294.676 4.161 C 294.676 4.251,294.103 4.462,293.403 4.630 C 292.703 4.798,292.130 5.006,292.130 5.093 C 292.130 5.180,291.713 5.376,291.204 5.528 C 290.694 5.681,290.278 5.906,290.278 6.028 C 290.278 6.150,290.025 6.250,289.716 6.250 C 289.406 6.250,289.011 6.393,288.837 6.567 C 288.663 6.741,288.265 6.962,287.952 7.059 C 287.315 7.256,285.365 8.337,285.183 8.593 C 285.118 8.685,284.779 8.831,284.431 8.919 C 284.082 9.006,283.796 9.151,283.796 9.241 C 283.796 9.331,283.432 9.547,282.986 9.722 C 282.541 9.897,282.176 10.117,282.176 10.211 C 282.176 10.306,281.889 10.527,281.539 10.704 C 280.322 11.319,279.744 11.692,279.560 11.979 C 279.458 12.138,279.221 12.269,279.032 12.269 C 278.844 12.269,278.633 12.415,278.564 12.595 C 278.495 12.774,278.134 13.047,277.761 13.201 C 277.388 13.356,277.083 13.577,277.083 13.693 C 277.083 13.809,276.909 13.970,276.696 14.052 C 276.483 14.134,276.126 14.365,275.902 14.566 C 275.679 14.766,275.358 15.035,275.190 15.163 C 274.199 15.918,272.008 17.818,271.388 18.461 C 270.989 18.874,270.597 19.213,270.517 19.213 C 270.307 19.213,267.824 21.744,267.824 21.958 C 267.824 22.057,267.445 22.473,266.982 22.883 C 266.518 23.293,265.837 24.016,265.469 24.488 C 264.222 26.085,263.544 26.907,263.061 27.401 C 262.797 27.672,262.514 28.076,262.432 28.299 C 262.350 28.521,262.186 28.704,262.067 28.704 C 261.948 28.704,261.742 29.016,261.609 29.398 C 261.476 29.780,261.257 30.093,261.123 30.093 C 260.989 30.093,260.880 30.252,260.880 30.447 C 260.880 30.642,260.741 30.855,260.572 30.920 C 260.403 30.985,260.123 31.398,259.950 31.838 C 259.777 32.279,259.557 32.639,259.460 32.639 C 259.295 32.639,258.995 33.115,258.291 34.491 C 258.129 34.809,257.933 35.122,257.857 35.185 C 257.780 35.249,257.570 35.639,257.390 36.053 C 257.210 36.467,256.992 36.806,256.906 36.806 C 256.820 36.806,256.622 37.196,256.466 37.674 C 256.310 38.151,256.119 38.594,256.041 38.657 C 255.802 38.851,254.630 41.307,254.630 41.612 C 254.630 41.769,254.538 41.898,254.426 41.898 C 254.313 41.898,254.104 42.367,253.959 42.940 C 253.815 43.513,253.594 43.981,253.469 43.981 C 253.343 43.981,253.241 44.143,253.241 44.341 C 253.241 44.539,253.036 45.151,252.785 45.701 C 252.535 46.252,252.261 47.131,252.177 47.656 C 252.093 48.181,251.948 48.611,251.854 48.611 C 251.760 48.611,251.551 49.236,251.389 50.000 C 251.227 50.764,251.012 51.389,250.911 51.389 C 250.810 51.389,250.656 51.962,250.569 52.662 C 250.481 53.362,250.317 53.935,250.205 53.935 C 250.092 53.935,250.000 54.144,250.000 54.398 C 250.000 55.005,250.700 55.005,250.859 54.398 C 250.925 54.144,251.060 53.935,251.159 53.935 C 251.257 53.935,251.402 53.591,251.481 53.170 C 251.560 52.749,251.832 51.998,252.085 51.501 C 252.339 51.003,252.546 50.410,252.546 50.183 C 252.546 49.955,252.634 49.769,252.741 49.769 C 252.848 49.769,253.061 49.352,253.213 48.843 C 253.366 48.333,253.583 47.917,253.695 47.917 C 253.807 47.917,253.967 47.604,254.051 47.222 C 254.135 46.840,254.283 46.528,254.379 46.528 C 254.476 46.528,254.693 46.111,254.861 45.602 C 255.029 45.093,255.247 44.676,255.346 44.676 C 255.445 44.676,255.657 44.311,255.819 43.866 C 255.980 43.420,256.195 43.056,256.297 43.056 C 256.398 43.056,256.481 42.944,256.481 42.809 C 256.481 42.673,256.742 42.220,257.060 41.803 C 257.378 41.386,257.639 40.924,257.639 40.777 C 257.639 40.630,257.746 40.509,257.876 40.509 C 258.007 40.509,258.212 40.249,258.333 39.931 C 258.454 39.612,258.660 39.352,258.791 39.352 C 258.921 39.352,259.028 39.212,259.028 39.041 C 259.028 38.869,259.236 38.541,259.491 38.310 C 259.745 38.080,259.954 37.789,259.954 37.664 C 259.954 37.539,260.188 37.204,260.475 36.919 C 261.045 36.351,262.281 34.834,262.560 34.360 C 262.812 33.932,268.989 27.779,269.174 27.772 C 269.328 27.765,270.977 26.377,271.899 25.476 C 272.167 25.214,272.506 25.000,272.652 25.000 C 272.797 25.000,272.917 24.908,272.917 24.797 C 272.917 24.685,273.229 24.464,273.611 24.306 C 273.993 24.147,274.306 23.924,274.306 23.809 C 274.306 23.694,274.566 23.501,274.884 23.380 C 275.203 23.259,275.463 23.053,275.463 22.922 C 275.463 22.792,275.622 22.685,275.817 22.685 C 276.012 22.685,276.229 22.535,276.300 22.352 C 276.370 22.169,276.738 21.951,277.118 21.867 C 277.498 21.784,277.863 21.576,277.928 21.404 C 277.994 21.233,278.343 21.028,278.704 20.949 C 279.065 20.870,279.593 20.603,279.877 20.356 C 280.162 20.109,280.535 19.907,280.707 19.907 C 280.878 19.907,281.019 19.807,281.019 19.685 C 281.019 19.563,281.435 19.338,281.944 19.186 C 282.454 19.033,282.870 18.833,282.870 18.741 C 282.870 18.649,283.339 18.455,283.912 18.311 C 284.485 18.167,284.954 17.954,284.954 17.839 C 284.954 17.724,285.266 17.561,285.648 17.477 C 286.030 17.393,286.343 17.245,286.343 17.148 C 286.343 17.051,286.916 16.844,287.616 16.687 C 288.316 16.530,288.889 16.320,288.889 16.219 C 288.889 16.118,289.514 15.903,290.278 15.741 C 291.042 15.579,291.667 15.369,291.667 15.276 C 291.667 15.182,292.188 15.037,292.824 14.952 C 293.461 14.868,293.981 14.709,293.981 14.599 C 293.981 14.490,294.893 14.267,296.007 14.104 C 297.121 13.941,298.084 13.738,298.148 13.652 C 298.287 13.466,302.600 12.963,304.059 12.963 C 304.628 12.963,305.093 12.859,305.093 12.731 C 305.093 12.584,306.906 12.500,310.069 12.500 C 312.807 12.500,315.046 12.582,315.046 12.682 C 315.046 12.782,316.526 12.993,318.334 13.150 C 320.143 13.307,321.679 13.523,321.749 13.629 C 321.818 13.735,322.700 13.943,323.709 14.091 C 324.717 14.240,325.654 14.451,325.792 14.562 C 325.929 14.672,326.484 14.835,327.024 14.925 C 327.565 15.014,328.060 15.173,328.125 15.278 C 328.190 15.383,328.685 15.544,329.225 15.635 C 329.764 15.726,330.570 15.995,331.014 16.234 C 331.458 16.472,332.050 16.667,332.330 16.667 C 332.609 16.667,332.981 16.810,333.156 16.986 C 333.332 17.161,333.808 17.378,334.215 17.467 C 334.621 17.556,334.954 17.712,334.954 17.812 C 334.954 17.913,335.422 18.127,335.995 18.287 C 336.568 18.447,337.037 18.661,337.037 18.762 C 337.037 18.863,337.425 19.074,337.899 19.230 C 338.373 19.386,338.901 19.655,339.073 19.827 C 339.244 19.998,339.534 20.139,339.716 20.139 C 339.897 20.139,340.046 20.235,340.046 20.352 C 340.046 20.469,340.366 20.635,340.756 20.721 C 341.147 20.807,341.520 21.017,341.586 21.188 C 341.652 21.359,342.016 21.568,342.396 21.651 C 342.776 21.735,343.143 21.949,343.212 22.128 C 343.280 22.307,343.437 22.454,343.559 22.454 C 343.681 22.454,344.122 22.714,344.540 23.032 C 344.957 23.351,345.419 23.611,345.566 23.611 C 345.713 23.611,345.833 23.718,345.833 23.848 C 345.833 23.979,346.094 24.185,346.412 24.306 C 346.730 24.427,346.991 24.632,346.991 24.763 C 346.991 25.325,348.210 24.967,348.943 24.190 C 349.364 23.744,349.788 23.380,349.887 23.380 C 349.986 23.380,350.787 22.650,351.668 21.759 C 352.549 20.868,353.345 20.139,353.438 20.139 C 353.531 20.139,354.402 19.358,355.372 18.403 C 356.343 17.448,357.204 16.667,357.286 16.667 C 357.369 16.667,358.152 15.938,359.028 15.046 C 359.903 14.155,360.730 13.426,360.865 13.426 C 361.372 13.426,361.086 12.566,360.475 12.250 C 360.124 12.070,359.755 11.792,359.653 11.632 C 359.551 11.473,359.317 11.343,359.132 11.343 C 358.947 11.343,358.796 11.251,358.796 11.139 C 358.796 11.027,358.458 10.799,358.044 10.632 C 357.630 10.465,357.213 10.200,357.117 10.043 C 357.020 9.887,356.639 9.692,356.268 9.610 C 355.897 9.529,355.537 9.313,355.466 9.129 C 355.396 8.946,355.179 8.796,354.984 8.796 C 354.789 8.796,354.630 8.696,354.630 8.574 C 354.630 8.452,354.213 8.227,353.704 8.075 C 353.194 7.922,352.778 7.726,352.778 7.639 C 352.778 7.553,352.361 7.344,351.852 7.176 C 351.343 7.008,350.926 6.791,350.926 6.694 C 350.926 6.597,350.613 6.450,350.231 6.366 C 349.850 6.282,349.537 6.126,349.537 6.019 C 349.537 5.911,349.198 5.752,348.785 5.665 C 348.371 5.577,347.720 5.317,347.338 5.087 C 346.956 4.857,346.253 4.596,345.775 4.508 C 345.298 4.419,344.907 4.262,344.907 4.158 C 344.907 4.053,344.334 3.840,343.634 3.683 C 342.934 3.527,342.361 3.321,342.361 3.226 C 342.361 3.131,341.840 2.981,341.204 2.894 C 340.567 2.806,340.046 2.649,340.046 2.545 C 340.046 2.442,339.291 2.230,338.368 2.075 C 337.445 1.921,336.638 1.721,336.574 1.630 C 336.437 1.436,333.432 0.926,332.421 0.926 C 332.031 0.926,331.713 0.837,331.713 0.729 C 331.713 0.091,316.150 -0.233,310.417 0.285 M370.750 19.560 C 370.676 19.751,370.461 19.907,370.270 19.907 C 370.080 19.907,369.812 20.116,369.676 20.370 C 369.540 20.625,369.316 20.833,369.179 20.833 C 369.042 20.833,368.432 21.250,367.824 21.759 C 367.216 22.269,366.655 22.685,366.578 22.685 C 366.426 22.685,365.577 23.372,364.515 24.356 C 364.141 24.703,363.648 25.045,363.420 25.118 C 363.192 25.190,362.947 25.401,362.876 25.588 C 362.804 25.774,362.621 25.926,362.469 25.926 C 362.316 25.926,362.027 26.082,361.825 26.272 C 361.190 26.871,360.008 27.778,359.862 27.778 C 359.716 27.778,359.419 28.019,358.152 29.171 C 357.734 29.550,357.317 29.861,357.226 29.861 C 357.072 29.862,356.170 30.542,355.306 31.309 C 355.106 31.487,354.767 31.699,354.554 31.781 C 354.341 31.863,354.167 32.030,354.167 32.153 C 354.167 32.276,353.970 32.439,353.730 32.515 C 353.489 32.591,352.994 32.914,352.630 33.232 C 352.266 33.549,351.863 33.885,351.736 33.976 C 350.266 35.036,349.143 35.903,348.595 36.400 C 348.349 36.623,348.085 36.806,348.008 36.806 C 347.862 36.806,346.681 37.712,346.045 38.311 C 345.844 38.502,345.592 38.657,345.486 38.657 C 345.380 38.657,345.128 38.813,344.927 39.003 C 344.292 39.603,343.110 40.509,342.964 40.509 C 342.813 40.509,342.502 40.764,341.140 42.002 C 340.660 42.439,340.070 42.859,339.831 42.935 C 339.591 43.011,339.336 43.225,339.265 43.412 C 339.193 43.598,338.979 43.750,338.789 43.750 C 338.598 43.750,338.331 43.958,338.194 44.213 C 338.058 44.468,337.835 44.676,337.698 44.676 C 337.561 44.676,336.951 45.093,336.343 45.602 C 335.734 46.111,335.174 46.528,335.097 46.528 C 334.947 46.528,334.016 47.274,333.219 48.032 C 332.952 48.287,332.451 48.623,332.107 48.780 C 331.763 48.936,331.481 49.171,331.481 49.301 C 331.481 49.431,331.326 49.537,331.136 49.537 C 330.946 49.537,330.661 49.745,330.502 50.000 C 330.343 50.255,330.100 50.463,329.962 50.463 C 329.823 50.463,329.466 50.723,329.167 51.042 C 328.868 51.360,328.537 51.620,328.432 51.620 C 328.233 51.620,327.863 51.910,326.627 53.034 C 326.222 53.402,325.820 53.704,325.735 53.704 C 325.584 53.704,324.626 54.436,323.785 55.191 C 323.562 55.392,323.272 55.556,323.141 55.556 C 323.010 55.556,322.846 55.702,322.777 55.882 C 322.708 56.061,322.354 56.331,321.991 56.481 C 321.627 56.632,321.273 56.902,321.204 57.081 C 321.136 57.261,320.955 57.407,320.802 57.407 C 320.650 57.407,320.360 57.567,320.158 57.762 C 319.446 58.450,318.401 59.259,318.221 59.259 C 318.122 59.259,317.734 59.572,317.361 59.954 C 316.988 60.336,316.571 60.648,316.436 60.648 C 316.300 60.648,316.133 60.795,316.064 60.974 C 315.995 61.153,315.641 61.423,315.278 61.574 C 314.914 61.725,314.560 61.995,314.491 62.174 C 314.423 62.353,314.242 62.500,314.089 62.500 C 313.937 62.500,313.647 62.660,313.445 62.856 C 313.244 63.052,312.454 63.677,311.690 64.244 C 310.926 64.811,310.197 65.354,310.069 65.450 C 309.942 65.546,309.421 65.934,308.912 66.312 C 307.663 67.240,307.447 67.410,306.928 67.882 C 306.682 68.105,306.395 68.287,306.290 68.287 C 306.185 68.287,305.855 68.547,305.556 68.866 C 305.257 69.184,304.874 69.444,304.705 69.444 C 304.536 69.444,304.398 69.653,304.398 69.907 C 304.398 70.362,304.552 70.370,312.644 70.370 L 320.891 70.370 331.869 59.375 C 337.907 53.328,342.909 48.380,342.985 48.380 C 343.122 48.380,358.955 32.698,360.612 30.922 C 361.078 30.423,361.653 29.850,361.890 29.649 C 362.128 29.447,362.701 28.882,363.163 28.392 C 363.626 27.902,364.199 27.329,364.437 27.119 C 364.674 26.908,365.247 26.335,365.710 25.846 C 366.172 25.356,366.745 24.783,366.983 24.572 C 367.221 24.362,367.793 23.789,368.256 23.299 C 368.719 22.809,369.291 22.236,369.527 22.026 C 370.724 20.960,371.759 19.800,371.759 19.523 C 371.759 19.099,370.915 19.129,370.750 19.560 M246.528 61.091 C 246.528 61.207,246.107 61.373,245.594 61.460 C 245.080 61.546,244.362 61.868,243.998 62.174 C 243.634 62.481,243.247 62.736,243.138 62.742 C 243.029 62.748,242.731 63.014,242.477 63.333 C 242.222 63.651,241.829 64.135,241.602 64.406 C 241.376 64.678,241.131 65.141,241.057 65.436 C 240.983 65.731,240.830 65.972,240.718 65.972 C 240.606 65.972,240.448 66.391,240.366 66.903 C 240.284 67.415,240.126 67.890,240.016 67.959 C 239.747 68.125,239.757 71.696,240.026 71.863 C 240.142 71.934,240.308 72.409,240.394 72.918 C 240.480 73.426,240.620 73.843,240.705 73.843 C 240.790 73.843,241.006 74.181,241.185 74.595 C 241.365 75.009,241.954 75.764,242.496 76.273 C 243.854 77.549,244.053 77.696,244.694 77.896 C 245.002 77.993,245.319 78.172,245.398 78.295 C 245.872 79.031,252.058 79.005,252.537 78.264 C 252.606 78.158,252.914 77.993,253.223 77.896 C 253.531 77.800,253.930 77.604,254.110 77.460 C 254.944 76.791,256.481 75.279,256.481 75.127 C 256.481 75.034,256.685 74.699,256.933 74.384 C 257.181 74.068,257.453 73.349,257.538 72.785 C 257.622 72.221,257.784 71.759,257.897 71.759 C 258.181 71.759,258.156 68.116,257.870 67.940 C 257.743 67.861,257.639 67.558,257.639 67.266 C 257.639 66.749,256.781 64.933,256.195 64.209 C 255.370 63.190,254.562 62.492,254.063 62.367 C 253.756 62.290,253.453 62.090,253.389 61.923 C 253.325 61.757,252.849 61.549,252.331 61.461 C 251.813 61.374,251.389 61.207,251.389 61.091 C 251.389 60.975,250.295 60.880,248.958 60.880 C 247.622 60.880,246.528 60.975,246.528 61.091 M196.227 63.831 C 196.157 64.181,196.027 65.119,195.937 65.914 C 195.847 66.710,195.693 67.361,195.595 67.361 C 195.496 67.361,195.342 68.012,195.252 68.808 C 195.161 69.604,195.006 70.359,194.907 70.486 C 194.807 70.613,194.594 71.707,194.433 72.917 C 194.272 74.126,194.069 75.168,193.983 75.231 C 193.897 75.295,193.698 76.283,193.541 77.427 C 193.383 78.571,193.168 79.560,193.063 79.626 C 192.958 79.692,192.797 80.450,192.705 81.311 C 192.613 82.172,192.458 82.926,192.360 82.987 C 192.262 83.047,192.050 84.139,191.887 85.414 C 191.725 86.689,191.516 87.731,191.424 87.731 C 191.331 87.731,191.123 88.773,190.961 90.046 C 190.799 91.319,190.589 92.361,190.495 92.361 C 190.402 92.361,190.252 93.090,190.162 93.981 C 190.073 94.873,189.919 95.602,189.821 95.602 C 189.722 95.602,189.506 96.591,189.340 97.801 C 189.174 99.010,188.968 100.000,188.882 100.000 C 188.796 100.000,188.591 101.094,188.426 102.431 C 188.261 103.767,188.049 104.861,187.956 104.861 C 187.862 104.861,187.713 105.537,187.625 106.363 C 187.536 107.190,187.380 107.917,187.277 107.981 C 187.174 108.045,186.957 109.139,186.795 110.414 C 186.632 111.689,186.425 112.731,186.334 112.731 C 186.244 112.731,186.034 113.721,185.868 114.931 C 185.702 116.140,185.491 117.130,185.399 117.130 C 185.307 117.130,185.159 117.859,185.069 118.751 C 184.980 119.643,184.825 120.423,184.725 120.484 C 184.625 120.546,184.411 121.639,184.248 122.914 C 184.086 124.189,183.879 125.231,183.789 125.231 C 183.698 125.231,183.493 126.221,183.333 127.431 C 183.173 128.640,182.952 129.630,182.841 129.630 C 182.730 129.630,182.639 129.838,182.639 130.093 C 182.639 130.552,182.793 130.556,203.443 130.556 L 224.248 130.556 224.392 129.832 C 224.472 129.434,224.537 128.861,224.537 128.559 C 224.537 128.257,224.631 128.009,224.745 128.009 C 224.859 128.009,225.026 127.280,225.116 126.389 C 225.205 125.498,225.354 124.769,225.446 124.769 C 225.538 124.769,225.754 123.779,225.926 122.569 C 226.098 121.360,226.312 120.370,226.403 120.370 C 226.493 120.370,226.641 119.675,226.732 118.825 C 226.823 117.976,226.950 117.142,227.015 116.974 C 227.112 116.721,224.833 116.667,214.128 116.667 L 201.124 116.667 201.288 115.336 C 201.378 114.604,201.530 113.953,201.626 113.889 C 201.721 113.825,201.935 112.810,202.101 111.632 C 202.268 110.454,202.471 109.491,202.553 109.491 C 202.636 109.491,202.836 108.449,202.998 107.176 C 203.160 105.903,203.375 104.861,203.475 104.861 C 203.575 104.861,203.730 104.132,203.819 103.241 C 203.909 102.350,204.057 101.620,204.148 101.620 C 204.240 101.620,204.442 100.662,204.598 99.490 C 204.754 98.319,204.971 97.251,205.081 97.118 C 205.190 96.984,205.412 95.859,205.573 94.618 C 205.735 93.377,205.943 92.361,206.035 92.361 C 206.127 92.361,206.276 91.632,206.366 90.741 C 206.455 89.850,206.604 89.120,206.695 89.120 C 206.787 89.120,206.998 88.129,207.165 86.916 C 207.331 85.704,207.546 84.664,207.642 84.604 C 207.739 84.545,207.950 83.453,208.113 82.179 C 208.275 80.904,208.487 79.861,208.584 79.861 C 208.680 79.861,208.832 79.183,208.921 78.353 C 209.010 77.524,209.162 76.796,209.260 76.736 C 209.358 76.675,209.571 75.583,209.733 74.308 C 209.896 73.034,210.103 71.991,210.193 71.991 C 210.284 71.991,210.494 71.001,210.660 69.792 C 210.826 68.582,211.037 67.593,211.129 67.593 C 211.221 67.593,211.369 66.863,211.458 65.972 C 211.548 65.081,211.715 64.352,211.829 64.352 C 211.943 64.352,212.037 64.091,212.037 63.773 L 212.037 63.194 204.196 63.194 L 196.354 63.194 196.227 63.831 M286.111 80.787 C 286.111 80.914,285.859 81.019,285.550 81.019 C 284.713 81.019,282.639 81.534,282.639 81.742 C 282.639 81.842,282.274 81.992,281.829 82.075 C 281.383 82.159,281.019 82.307,281.019 82.405 C 281.019 82.503,280.680 82.723,280.266 82.894 C 279.334 83.280,278.954 83.574,277.257 85.222 C 276.515 85.943,275.958 86.359,276.019 86.148 C 276.080 85.937,276.200 85.165,276.286 84.433 C 276.372 83.701,276.534 83.102,276.647 83.102 C 276.760 83.102,276.852 82.737,276.852 82.292 L 276.852 81.481 269.354 81.481 L 261.856 81.481 261.729 82.002 C 261.659 82.289,261.531 83.174,261.443 83.970 C 261.355 84.766,261.200 85.417,261.098 85.417 C 260.996 85.417,260.841 86.016,260.752 86.748 C 260.663 87.480,260.510 88.183,260.410 88.310 C 260.311 88.438,260.097 89.557,259.936 90.799 C 259.774 92.040,259.573 93.056,259.488 93.056 C 259.403 93.056,259.201 94.098,259.039 95.373 C 258.876 96.648,258.659 97.743,258.557 97.806 C 258.454 97.870,258.297 98.598,258.209 99.424 C 258.120 100.250,257.971 100.926,257.878 100.926 C 257.784 100.926,257.572 102.020,257.407 103.356 C 257.242 104.693,257.036 105.787,256.948 105.787 C 256.860 105.787,256.655 106.829,256.493 108.102 C 256.331 109.375,256.118 110.417,256.019 110.417 C 255.921 110.417,255.768 111.094,255.680 111.921 C 255.591 112.749,255.440 113.426,255.343 113.426 C 255.246 113.426,255.035 114.469,254.872 115.743 C 254.710 117.018,254.496 118.111,254.398 118.171 C 254.300 118.232,254.087 119.325,253.924 120.599 C 253.762 121.874,253.552 122.917,253.458 122.917 C 253.364 122.917,253.215 123.646,253.125 124.537 C 253.035 125.428,252.890 126.157,252.801 126.157 C 252.662 126.157,252.083 129.481,252.083 130.278 C 252.083 130.488,253.890 130.556,259.491 130.556 C 266.669 130.556,266.898 130.542,266.898 130.106 C 266.898 129.859,266.990 129.600,267.103 129.530 C 267.216 129.461,267.441 128.361,267.604 127.086 C 267.766 125.811,267.969 124.769,268.056 124.769 C 268.142 124.769,268.345 123.727,268.507 122.454 C 268.669 121.181,268.884 120.139,268.984 120.139 C 269.084 120.139,269.239 119.410,269.329 118.519 C 269.418 117.627,269.570 116.898,269.665 116.898 C 269.761 116.898,269.974 115.804,270.139 114.468 C 270.304 113.131,270.511 112.037,270.599 112.037 C 270.687 112.037,270.891 110.995,271.053 109.722 C 271.216 108.449,271.424 107.407,271.516 107.407 C 271.609 107.407,271.817 106.366,271.979 105.093 C 272.142 103.819,272.358 102.778,272.459 102.778 C 272.561 102.778,272.715 102.361,272.801 101.852 C 272.887 101.343,273.036 100.926,273.131 100.926 C 273.227 100.926,273.443 100.509,273.611 100.000 C 273.779 99.491,273.997 99.074,274.096 99.074 C 274.194 99.074,274.342 98.862,274.424 98.604 C 274.588 98.086,275.641 97.052,277.662 95.424 C 277.789 95.321,278.258 95.091,278.704 94.912 C 279.149 94.733,279.588 94.476,279.679 94.342 C 279.906 94.005,286.071 94.011,286.293 94.349 C 286.384 94.487,286.810 94.721,287.240 94.868 C 288.009 95.131,288.665 95.717,289.352 96.755 C 289.543 97.043,289.855 97.441,290.046 97.640 C 290.491 98.101,290.557 104.083,290.120 104.353 C 289.972 104.444,289.777 105.169,289.687 105.963 C 289.597 106.758,289.450 107.407,289.359 107.407 C 289.269 107.407,289.062 108.449,288.900 109.722 C 288.738 110.995,288.528 112.037,288.434 112.037 C 288.340 112.037,288.128 113.131,287.963 114.468 C 287.798 115.804,287.585 116.898,287.489 116.898 C 287.394 116.898,287.242 117.627,287.153 118.519 C 287.063 119.410,286.908 120.139,286.808 120.139 C 286.708 120.139,286.493 121.181,286.331 122.454 C 286.169 123.727,285.967 124.769,285.883 124.769 C 285.799 124.769,285.594 125.760,285.428 126.972 C 285.262 128.185,285.035 129.232,284.924 129.301 C 284.813 129.369,284.722 129.680,284.722 129.991 L 284.722 130.556 292.338 130.556 L 299.953 130.556 300.116 128.935 C 300.205 128.044,300.355 127.315,300.449 127.315 C 300.543 127.315,300.752 126.273,300.915 125.000 C 301.077 123.727,301.294 122.685,301.397 122.685 C 301.499 122.685,301.656 122.008,301.745 121.181 C 301.833 120.353,301.980 119.676,302.070 119.676 C 302.161 119.676,302.367 118.660,302.529 117.419 C 302.690 116.178,302.912 115.053,303.021 114.919 C 303.130 114.786,303.347 113.718,303.503 112.547 C 303.659 111.375,303.859 110.417,303.947 110.417 C 304.035 110.417,304.180 109.767,304.270 108.972 C 304.360 108.178,304.517 107.423,304.620 107.294 C 304.722 107.165,304.941 106.123,305.106 104.977 C 305.270 103.831,305.517 102.819,305.654 102.728 C 306.003 102.497,305.998 92.406,305.649 92.179 C 305.509 92.088,305.324 91.561,305.237 91.007 C 305.086 90.038,304.237 88.161,303.877 88.002 C 303.782 87.959,303.702 87.803,303.701 87.654 C 303.697 87.317,302.971 86.387,301.620 84.990 C 300.571 83.904,300.277 83.684,298.900 82.953 C 298.487 82.733,298.148 82.468,298.148 82.365 C 298.148 82.261,297.986 82.176,297.788 82.176 C 297.590 82.176,296.988 81.975,296.450 81.730 C 295.912 81.485,294.824 81.211,294.032 81.122 C 293.240 81.032,292.593 80.868,292.593 80.757 C 292.593 80.646,291.134 80.556,289.352 80.556 C 287.346 80.556,286.111 80.644,286.111 80.787 M333.796 80.745 C 333.796 80.849,332.892 81.055,331.787 81.203 C 330.683 81.351,329.719 81.569,329.646 81.687 C 329.573 81.805,329.122 81.975,328.645 82.065 C 328.168 82.154,327.778 82.310,327.778 82.410 C 327.778 82.511,327.257 82.718,326.620 82.870 C 325.984 83.023,325.463 83.222,325.463 83.313 C 325.463 83.404,325.098 83.621,324.653 83.796 C 324.207 83.971,323.843 84.199,323.843 84.302 C 323.843 84.406,323.683 84.491,323.488 84.491 C 323.293 84.491,323.074 84.647,323.000 84.838 C 322.927 85.029,322.748 85.187,322.603 85.188 C 322.311 85.192,321.496 85.800,320.128 87.037 C 319.635 87.483,318.863 88.151,318.412 88.523 C 317.961 88.895,317.593 89.294,317.593 89.411 C 317.593 89.528,317.279 89.953,316.895 90.355 C 315.737 91.572,315.047 92.462,315.047 92.741 C 315.046 92.887,314.900 93.062,314.721 93.131 C 314.542 93.200,314.327 93.567,314.244 93.947 C 314.160 94.326,313.942 94.695,313.759 94.765 C 313.576 94.835,313.426 95.052,313.426 95.247 C 313.426 95.442,313.322 95.602,313.194 95.602 C 313.067 95.602,312.963 95.703,312.963 95.826 C 312.963 95.950,312.700 96.625,312.379 97.327 C 312.058 98.029,311.733 98.918,311.656 99.302 C 311.579 99.686,311.438 100.000,311.343 100.000 C 311.248 100.000,311.099 100.544,311.010 101.209 C 310.922 101.875,310.751 102.538,310.630 102.684 C 309.955 103.497,309.950 114.828,310.625 115.270 C 310.728 115.338,310.889 115.810,310.983 116.319 C 311.076 116.829,311.229 117.350,311.322 117.477 C 311.415 117.604,311.630 118.151,311.801 118.692 C 311.972 119.233,312.190 119.676,312.287 119.676 C 312.384 119.676,312.529 119.973,312.608 120.337 C 312.748 120.974,312.937 121.279,314.063 122.682 C 314.349 123.039,314.583 123.397,314.583 123.479 C 314.583 123.890,318.374 127.281,319.647 128.009 C 319.981 128.200,320.307 128.417,320.370 128.491 C 320.434 128.565,320.825 128.772,321.238 128.952 C 321.652 129.132,321.991 129.342,321.991 129.418 C 321.991 129.494,322.564 129.693,323.264 129.861 C 323.964 130.029,324.537 130.242,324.537 130.335 C 324.537 130.428,324.928 130.577,325.405 130.666 C 325.883 130.755,326.377 130.911,326.505 131.013 C 327.616 131.897,342.009 131.910,342.593 131.027 C 342.656 130.930,343.203 130.778,343.808 130.689 C 344.413 130.600,344.907 130.446,344.907 130.347 C 344.907 130.247,345.480 130.038,346.181 129.881 C 346.881 129.725,347.454 129.522,347.454 129.432 C 347.454 129.342,347.922 129.129,348.495 128.960 C 349.068 128.791,349.537 128.586,349.538 128.505 C 349.538 128.423,350.111 128.048,350.811 127.670 C 351.511 127.293,352.083 126.915,352.083 126.830 C 352.083 126.746,352.396 126.547,352.778 126.389 C 353.160 126.231,353.472 126.006,353.472 125.891 C 353.472 125.775,353.643 125.614,353.852 125.534 C 354.061 125.454,354.795 124.834,355.483 124.157 L 356.734 122.926 355.971 122.072 C 355.552 121.603,354.661 120.645,353.993 119.944 C 353.325 119.243,352.778 118.603,352.778 118.522 C 352.778 118.441,352.257 117.835,351.620 117.175 C 350.984 116.514,350.463 115.895,350.463 115.799 C 350.463 115.456,349.109 114.352,348.690 114.353 C 348.456 114.354,347.867 114.718,347.383 115.163 C 346.898 115.608,346.400 115.972,346.276 115.972 C 346.152 115.972,345.993 116.122,345.922 116.305 C 345.852 116.488,345.491 116.705,345.121 116.786 C 344.750 116.868,344.368 117.064,344.272 117.223 C 344.176 117.382,343.602 117.648,342.998 117.814 C 342.393 117.980,341.898 118.199,341.898 118.300 C 341.898 118.402,341.325 118.557,340.625 118.644 C 339.925 118.732,339.352 118.896,339.352 119.008 C 339.352 119.272,333.864 119.278,333.701 119.014 C 333.633 118.904,333.090 118.748,332.495 118.666 C 331.900 118.585,331.298 118.436,331.158 118.335 C 331.017 118.234,330.486 118.012,329.977 117.840 C 329.468 117.668,328.999 117.464,328.935 117.386 C 328.822 117.249,328.555 117.068,327.258 116.255 C 326.909 116.036,326.623 115.752,326.622 115.625 C 326.621 115.498,326.362 115.093,326.046 114.727 C 325.731 114.360,325.407 113.709,325.326 113.280 C 325.246 112.851,325.087 112.500,324.974 112.500 C 324.861 112.500,324.769 111.979,324.769 111.343 L 324.769 110.185 342.893 110.185 L 361.017 110.185 361.295 108.561 C 361.449 107.667,361.574 106.677,361.574 106.361 C 361.574 106.046,361.678 105.787,361.806 105.787 C 361.949 105.787,362.037 104.552,362.037 102.546 C 362.037 100.540,361.949 99.306,361.806 99.306 C 361.678 99.306,361.574 98.976,361.574 98.572 C 361.574 97.480,361.090 94.907,360.885 94.907 C 360.786 94.907,360.644 94.595,360.567 94.213 C 360.387 93.311,359.531 91.435,359.300 91.435 C 359.201 91.435,358.989 91.071,358.828 90.625 C 358.667 90.179,358.437 89.815,358.318 89.815 C 358.199 89.815,358.102 89.680,358.102 89.516 C 358.102 89.352,357.685 88.834,357.176 88.366 C 356.667 87.897,356.250 87.414,356.250 87.291 C 356.250 87.169,355.919 86.833,355.515 86.545 C 355.110 86.257,354.500 85.729,354.159 85.372 C 353.817 85.015,353.416 84.722,353.266 84.722 C 353.117 84.722,352.942 84.584,352.877 84.414 C 352.812 84.245,352.398 83.965,351.958 83.793 C 351.518 83.620,351.157 83.410,351.157 83.327 C 351.157 83.244,350.741 83.038,350.231 82.870 C 349.722 82.702,349.306 82.489,349.306 82.396 C 349.306 82.303,348.945 82.160,348.505 82.077 C 348.065 81.995,347.419 81.779,347.070 81.598 C 346.722 81.417,345.728 81.199,344.862 81.114 C 343.996 81.029,343.287 80.868,343.287 80.757 C 343.287 80.646,341.152 80.556,338.542 80.556 C 335.932 80.556,333.796 80.641,333.796 80.745 M239.352 82.176 C 239.352 82.558,239.263 82.870,239.155 82.870 C 239.046 82.870,238.822 83.964,238.657 85.301 C 238.492 86.638,238.276 87.731,238.177 87.731 C 238.078 87.731,237.924 88.330,237.835 89.063 C 237.747 89.795,237.595 90.498,237.499 90.625 C 237.402 90.752,237.195 91.794,237.037 92.940 C 236.880 94.086,236.669 95.127,236.569 95.255 C 236.469 95.382,236.255 96.502,236.093 97.743 C 235.932 98.984,235.726 100.000,235.635 100.000 C 235.545 100.000,235.398 100.676,235.310 101.502 C 235.221 102.328,235.066 103.055,234.965 103.118 C 234.865 103.180,234.646 104.223,234.479 105.435 C 234.313 106.647,234.107 107.639,234.021 107.639 C 233.935 107.639,233.730 108.733,233.565 110.069 C 233.400 111.406,233.195 112.500,233.109 112.500 C 233.023 112.500,232.817 113.490,232.651 114.699 C 232.485 115.909,232.268 116.898,232.170 116.898 C 232.072 116.898,231.918 117.627,231.829 118.519 C 231.739 119.410,231.589 120.139,231.495 120.139 C 231.402 120.139,231.187 121.181,231.019 122.454 C 230.850 123.727,230.640 124.769,230.552 124.769 C 230.464 124.769,230.258 125.862,230.093 127.199 C 229.928 128.536,229.704 129.630,229.595 129.630 C 229.487 129.630,229.398 129.838,229.398 130.093 C 229.398 130.546,229.552 130.556,237.014 130.556 L 244.629 130.556 244.792 128.935 C 244.881 128.044,245.031 127.315,245.125 127.315 C 245.219 127.315,245.428 126.273,245.591 125.000 C 245.753 123.727,245.967 122.685,246.067 122.685 C 246.167 122.685,246.323 121.956,246.412 121.065 C 246.502 120.174,246.654 119.444,246.750 119.444 C 246.846 119.444,247.055 118.481,247.214 117.303 C 247.374 116.126,247.587 115.058,247.688 114.931 C 247.789 114.803,248.004 113.683,248.166 112.442 C 248.327 111.201,248.535 110.185,248.628 110.185 C 248.720 110.185,248.869 109.456,248.958 108.565 C 249.048 107.674,249.196 106.944,249.288 106.944 C 249.381 106.944,249.597 105.955,249.769 104.745 C 249.940 103.536,250.152 102.546,250.238 102.546 C 250.324 102.546,250.530 101.453,250.694 100.116 C 250.859 98.779,251.075 97.685,251.173 97.685 C 251.272 97.685,251.425 97.007,251.514 96.177 C 251.602 95.348,251.755 94.620,251.853 94.560 C 251.950 94.499,252.163 93.407,252.326 92.132 C 252.488 90.858,252.693 89.815,252.782 89.815 C 252.870 89.815,253.078 88.851,253.245 87.674 C 253.411 86.496,253.630 85.477,253.732 85.409 C 253.833 85.341,253.987 84.430,254.075 83.383 L 254.233 81.481 246.793 81.481 L 239.352 81.481 239.352 82.176 M341.930 93.420 C 342.103 93.548,342.647 93.790,343.137 93.957 C 343.627 94.123,344.226 94.458,344.468 94.699 C 344.710 94.941,345.038 95.143,345.197 95.148 C 345.534 95.158,346.628 96.672,346.880 97.478 C 346.975 97.783,347.131 98.084,347.225 98.148 C 347.320 98.212,347.471 98.707,347.561 99.248 L 347.726 100.231 336.942 100.231 C 331.010 100.231,326.157 100.142,326.157 100.032 C 326.157 99.923,326.418 99.449,326.736 98.980 C 327.054 98.511,327.315 98.088,327.315 98.040 C 327.315 97.858,329.444 95.833,329.636 95.833 C 329.747 95.833,329.921 95.697,330.023 95.530 C 330.125 95.364,330.547 95.091,330.961 94.924 C 331.374 94.756,331.713 94.536,331.713 94.433 C 331.713 94.330,332.286 94.118,332.986 93.961 C 333.686 93.805,334.259 93.595,334.259 93.496 C 334.259 93.052,341.337 92.982,341.930 93.420 M367.650 163.126 C 367.364 163.182,367.130 163.312,367.130 163.417 C 367.130 163.522,366.895 163.666,366.609 163.738 C 366.030 163.884,363.345 166.417,362.340 167.766 C 361.984 168.243,361.562 168.718,361.402 168.819 C 361.242 168.921,361.111 169.107,361.111 169.232 C 361.111 169.358,360.799 169.766,360.417 170.139 C 360.035 170.512,359.722 170.904,359.722 171.009 C 359.722 171.114,359.346 171.612,358.886 172.116 C 357.139 174.031,356.944 174.271,356.944 174.505 C 356.944 174.637,356.808 174.829,356.642 174.931 C 356.476 175.032,356.034 175.532,355.659 176.042 C 355.284 176.551,354.795 177.104,354.572 177.270 C 354.349 177.436,354.162 177.697,354.157 177.849 C 354.151 178.001,353.839 178.381,353.462 178.693 C 353.086 179.005,352.776 179.370,352.774 179.503 C 352.772 179.636,352.511 179.991,352.195 180.290 C 351.879 180.590,351.620 180.932,351.620 181.050 C 351.620 181.168,351.256 181.584,350.810 181.975 C 350.365 182.367,350.000 182.832,350.000 183.010 C 350.000 183.188,349.913 183.333,349.808 183.333 C 349.702 183.333,349.283 183.797,348.876 184.363 C 348.470 184.929,347.853 185.696,347.506 186.066 C 346.197 187.464,345.833 187.920,345.833 188.158 C 345.833 188.293,345.697 188.486,345.531 188.588 C 345.365 188.690,344.922 189.190,344.548 189.699 C 344.173 190.208,343.684 190.761,343.461 190.927 C 343.238 191.094,343.051 191.354,343.046 191.506 C 343.040 191.658,342.728 192.038,342.351 192.350 C 341.975 192.663,341.665 193.027,341.663 193.160 C 341.660 193.294,341.400 193.648,341.084 193.948 C 340.768 194.248,340.509 194.595,340.509 194.720 C 340.509 194.845,340.145 195.270,339.699 195.664 C 339.253 196.059,338.889 196.470,338.889 196.578 C 338.889 196.686,338.576 197.080,338.194 197.454 C 337.813 197.827,337.498 198.214,337.496 198.314 C 337.494 198.414,337.233 198.741,336.917 199.040 C 336.601 199.340,336.343 199.686,336.343 199.808 C 336.343 199.931,335.978 200.375,335.532 200.795 C 335.087 201.215,334.722 201.677,334.722 201.821 C 334.722 201.965,334.636 202.083,334.530 202.083 C 334.424 202.083,333.987 202.578,333.559 203.183 C 333.130 203.788,332.644 204.366,332.478 204.468 C 332.312 204.569,332.176 204.759,332.176 204.888 C 332.176 205.018,331.811 205.468,331.366 205.888 C 330.920 206.308,330.556 206.765,330.556 206.902 C 330.556 207.040,330.420 207.236,330.253 207.338 C 330.087 207.440,329.645 207.940,329.271 208.449 C 328.897 208.958,328.460 209.458,328.300 209.560 C 328.140 209.662,328.009 209.871,328.009 210.024 C 328.009 210.178,327.645 210.608,327.199 210.979 C 326.753 211.351,326.387 211.767,326.385 211.904 C 326.383 212.041,326.122 212.398,325.806 212.698 C 325.490 212.998,325.231 213.345,325.231 213.470 C 325.231 213.595,324.867 214.020,324.421 214.414 C 323.976 214.809,323.611 215.220,323.611 215.328 C 323.611 215.436,323.299 215.830,322.917 216.204 C 322.535 216.577,322.222 216.972,322.222 217.081 C 322.222 217.191,321.962 217.525,321.644 217.824 C 321.325 218.123,321.065 218.461,321.065 218.574 C 321.065 218.688,320.700 219.125,320.255 219.545 C 319.809 219.965,319.444 220.422,319.444 220.560 C 319.444 220.698,319.308 220.894,319.142 220.995 C 318.976 221.097,318.534 221.597,318.160 222.106 C 317.786 222.616,317.349 223.116,317.189 223.218 C 317.029 223.319,316.898 223.536,316.898 223.698 C 316.898 223.861,316.534 224.298,316.088 224.669 C 315.642 225.041,315.278 225.457,315.278 225.595 C 315.278 225.733,315.017 226.090,314.699 226.389 C 314.381 226.688,314.116 227.045,314.111 227.182 C 314.105 227.319,313.793 227.686,313.416 227.998 C 313.040 228.311,312.731 228.696,312.731 228.855 C 312.731 229.014,312.600 229.227,312.438 229.329 C 312.019 229.593,310.880 231.013,310.880 231.271 C 310.880 231.761,325.269 231.415,325.554 230.919 C 325.695 230.673,326.097 230.181,326.447 229.827 C 326.797 229.472,327.085 229.101,327.087 229.001 C 327.090 228.901,327.350 228.574,327.666 228.274 C 327.982 227.974,328.241 227.645,328.241 227.542 C 328.241 227.439,328.579 226.987,328.993 226.537 C 329.407 226.088,329.954 225.446,330.208 225.112 C 330.463 224.778,331.007 224.121,331.418 223.653 C 331.829 223.184,332.168 222.727,332.171 222.637 C 332.174 222.546,332.591 222.025,333.097 221.479 C 334.425 220.047,334.658 219.765,334.933 219.251 C 335.155 218.836,335.716 218.174,337.043 216.758 C 337.294 216.490,337.500 216.157,337.500 216.017 C 337.500 215.878,337.636 215.680,337.802 215.579 C 337.968 215.477,338.410 214.977,338.785 214.468 C 339.159 213.958,339.596 213.458,339.756 213.357 C 339.915 213.255,340.046 213.066,340.046 212.937 C 340.046 212.808,340.301 212.422,340.613 212.080 C 342.212 210.324,342.593 209.871,342.593 209.722 C 342.593 209.632,342.827 209.296,343.113 208.975 C 344.247 207.706,344.941 206.852,345.142 206.477 C 345.257 206.260,345.695 205.722,346.114 205.281 C 346.532 204.839,347.062 204.226,347.290 203.917 C 347.518 203.609,347.969 203.044,348.291 202.662 C 348.614 202.280,349.050 201.707,349.261 201.389 C 349.472 201.071,349.829 200.674,350.054 200.508 C 350.279 200.341,350.467 200.081,350.473 199.929 C 350.478 199.777,350.791 199.397,351.167 199.085 C 351.544 198.773,351.854 198.408,351.856 198.275 C 351.858 198.141,352.118 197.787,352.435 197.487 C 352.751 197.187,353.014 196.823,353.019 196.677 C 353.024 196.531,353.337 196.157,353.714 195.844 C 354.090 195.532,354.398 195.145,354.398 194.984 C 354.398 194.824,354.599 194.584,354.845 194.453 C 355.091 194.321,355.357 194.010,355.436 193.761 C 355.515 193.513,355.913 192.958,356.320 192.528 C 356.727 192.098,357.269 191.464,357.523 191.118 C 357.778 190.772,358.377 190.060,358.854 189.536 C 359.332 189.011,359.722 188.504,359.722 188.408 C 359.722 188.312,360.061 187.866,360.475 187.417 C 360.888 186.967,361.435 186.328,361.690 185.996 C 361.944 185.665,362.347 185.164,362.584 184.884 C 362.821 184.604,363.289 184.010,363.624 183.565 C 363.959 183.119,364.364 182.671,364.524 182.570 C 364.684 182.468,364.815 182.291,364.815 182.176 C 364.815 181.940,365.837 180.787,366.046 180.787 C 366.121 180.787,366.251 181.152,366.335 181.597 C 366.418 182.043,366.571 182.407,366.674 182.407 C 366.777 182.407,366.934 182.746,367.022 183.160 C 367.110 183.573,367.379 184.349,367.619 184.883 C 367.859 185.417,368.056 185.979,368.056 186.131 C 368.056 186.386,368.624 187.718,369.331 189.120 C 369.491 189.439,369.700 190.062,369.795 190.506 C 369.890 190.950,370.100 191.523,370.262 191.779 C 370.424 192.036,370.627 192.584,370.713 192.998 C 370.800 193.411,370.957 193.750,371.063 193.750 C 371.169 193.750,371.326 194.167,371.412 194.676 C 371.498 195.185,371.653 195.602,371.757 195.602 C 371.860 195.602,372.070 196.123,372.222 196.759 C 372.375 197.396,372.577 197.917,372.671 197.917 C 372.766 197.917,372.971 198.490,373.128 199.190 C 373.285 199.890,373.500 200.463,373.607 200.463 C 373.714 200.463,373.872 200.880,373.958 201.389 C 374.044 201.898,374.197 202.315,374.298 202.315 C 374.448 202.315,375.000 204.033,375.000 204.501 C 375.000 204.572,370.414 204.630,364.810 204.630 L 354.620 204.630 354.344 205.234 C 354.193 205.567,353.716 206.218,353.285 206.681 C 351.978 208.085,351.852 208.247,351.852 208.515 C 351.852 208.657,351.722 208.857,351.563 208.958 C 351.188 209.198,349.306 211.490,349.306 211.707 C 349.306 211.798,349.094 212.092,348.835 212.360 C 347.651 213.587,346.991 214.386,346.991 214.591 C 346.991 214.733,352.891 214.815,363.079 214.815 C 378.341 214.815,379.167 214.836,379.167 215.226 C 379.167 215.453,379.310 215.843,379.484 216.094 C 379.659 216.345,379.876 216.889,379.966 217.303 C 380.056 217.717,380.209 218.056,380.306 218.056 C 380.403 218.056,380.610 218.628,380.767 219.329 C 380.924 220.029,381.126 220.602,381.216 220.602 C 381.306 220.602,381.522 221.097,381.696 221.701 C 381.870 222.306,382.086 222.905,382.178 223.032 C 382.269 223.160,382.412 223.550,382.496 223.900 C 382.579 224.251,382.750 224.537,382.875 224.537 C 383.000 224.537,383.102 224.695,383.102 224.888 C 383.102 225.392,383.652 227.083,383.816 227.083 C 383.892 227.083,384.091 227.656,384.259 228.356 C 384.427 229.057,384.641 229.630,384.733 229.630 C 384.826 229.630,384.969 229.984,385.050 230.417 C 385.254 231.504,385.085 231.481,392.959 231.481 L 400.000 231.481 399.997 230.961 C 399.994 230.332,399.390 228.277,399.102 227.919 C 398.989 227.778,398.824 227.323,398.735 226.910 C 398.647 226.496,398.490 226.157,398.387 226.157 C 398.284 226.157,398.128 225.767,398.041 225.289 C 397.954 224.812,397.755 224.213,397.598 223.958 C 397.442 223.704,397.169 223.027,396.993 222.454 C 396.816 221.881,396.535 221.207,396.368 220.955 C 396.201 220.704,396.065 220.314,396.065 220.087 C 396.065 219.861,395.968 219.676,395.850 219.676 C 395.732 219.676,395.507 219.103,395.350 218.403 C 395.193 217.703,394.988 217.130,394.894 217.130 C 394.799 217.130,394.597 216.609,394.444 215.972 C 394.292 215.336,394.085 214.815,393.984 214.815 C 393.884 214.815,393.733 214.450,393.650 214.005 C 393.566 213.559,393.415 213.194,393.313 213.194 C 393.212 213.194,393.001 212.622,392.844 211.921 C 392.688 211.221,392.479 210.648,392.381 210.648 C 392.284 210.648,392.066 210.075,391.898 209.375 C 391.730 208.675,391.510 208.102,391.409 208.102 C 391.307 208.102,391.156 207.737,391.073 207.292 C 390.989 206.846,390.840 206.481,390.741 206.481 C 390.642 206.481,390.497 206.141,390.419 205.725 C 390.341 205.309,390.069 204.580,389.814 204.105 C 389.560 203.631,389.352 203.041,389.352 202.795 C 389.352 202.549,389.208 202.204,389.033 202.029 C 388.857 201.853,388.635 201.353,388.540 200.916 C 388.444 200.480,388.233 199.913,388.071 199.656 C 387.909 199.400,387.706 198.851,387.620 198.438 C 387.534 198.024,387.384 197.685,387.287 197.685 C 387.190 197.685,386.974 197.112,386.806 196.412 C 386.638 195.712,386.426 195.139,386.335 195.139 C 386.243 195.139,386.106 194.826,386.030 194.444 C 385.954 194.063,385.680 193.287,385.422 192.721 C 385.165 192.155,384.954 191.530,384.954 191.332 C 384.954 191.134,384.858 190.972,384.741 190.972 C 384.623 190.972,384.455 190.634,384.367 190.220 C 384.279 189.806,384.010 189.031,383.770 188.496 C 383.530 187.962,383.333 187.387,383.333 187.217 C 383.333 187.047,383.190 186.703,383.016 186.452 C 382.841 186.201,382.624 185.657,382.534 185.243 C 382.444 184.829,382.297 184.491,382.208 184.491 C 382.119 184.491,381.903 183.996,381.730 183.391 C 381.556 182.786,381.344 182.188,381.258 182.060 C 381.172 181.933,380.959 181.360,380.785 180.787 C 380.610 180.214,380.331 179.540,380.164 179.289 C 379.998 179.038,379.861 178.647,379.861 178.421 C 379.861 178.194,379.764 178.009,379.646 178.009 C 379.528 178.009,379.303 177.436,379.146 176.736 C 378.990 176.036,378.784 175.463,378.690 175.463 C 378.596 175.463,378.393 174.942,378.241 174.306 C 378.088 173.669,377.881 173.148,377.780 173.148 C 377.680 173.148,377.529 172.784,377.446 172.338 C 377.362 171.892,377.211 171.528,377.110 171.528 C 377.008 171.528,376.797 170.955,376.641 170.255 C 376.484 169.554,376.272 168.981,376.170 168.981 C 376.067 168.981,375.921 168.669,375.845 168.287 C 375.667 167.395,374.814 165.522,374.397 165.105 C 374.219 164.927,374.074 164.686,374.074 164.568 C 374.074 163.411,370.425 162.592,367.650 163.126 M207.870 164.120 C 207.870 164.248,207.584 164.351,207.234 164.350 C 206.232 164.348,202.906 164.883,202.778 165.067 C 202.714 165.158,202.049 165.346,201.299 165.485 C 200.550 165.623,199.821 165.830,199.679 165.944 C 199.537 166.057,199.083 166.223,198.669 166.311 C 198.255 166.400,197.917 166.546,197.917 166.637 C 197.917 166.728,197.448 166.927,196.875 167.081 C 196.302 167.234,195.833 167.464,195.833 167.592 C 195.833 167.720,195.705 167.824,195.547 167.824 C 195.181 167.824,192.805 169.004,192.403 169.386 C 192.235 169.545,191.852 169.737,191.551 169.812 C 191.251 169.888,190.949 170.096,190.880 170.276 C 190.812 170.455,190.612 170.602,190.437 170.602 C 190.261 170.602,189.930 170.810,189.699 171.065 C 189.469 171.319,189.165 171.528,189.024 171.528 C 188.884 171.528,188.639 171.736,188.480 171.991 C 188.321 172.245,188.073 172.454,187.928 172.454 C 187.784 172.454,187.211 172.922,186.654 173.495 C 186.097 174.068,185.577 174.537,185.499 174.537 C 185.298 174.537,183.102 176.690,183.102 176.887 C 183.102 176.976,182.607 177.566,182.002 178.197 C 180.769 179.485,178.935 181.987,178.935 182.381 C 178.935 182.523,178.844 182.639,178.732 182.639 C 178.620 182.639,178.391 182.977,178.224 183.391 C 178.057 183.805,177.840 184.199,177.743 184.267 C 177.425 184.489,175.463 188.502,175.463 188.932 C 175.463 189.163,175.366 189.352,175.248 189.352 C 175.130 189.352,174.905 189.925,174.748 190.625 C 174.592 191.325,174.387 191.898,174.294 191.898 C 174.202 191.898,174.053 192.289,173.963 192.766 C 173.874 193.244,173.717 193.738,173.613 193.866 C 173.510 193.993,173.289 194.931,173.123 195.949 C 172.957 196.968,172.750 197.853,172.662 197.917 C 172.001 198.396,171.998 211.285,172.658 212.136 C 172.764 212.273,172.974 213.032,173.125 213.825 C 173.277 214.617,173.551 215.554,173.736 215.908 C 173.920 216.262,174.072 216.733,174.073 216.956 C 174.073 217.179,174.162 217.361,174.269 217.361 C 174.375 217.361,174.600 217.778,174.769 218.287 C 174.937 218.796,175.142 219.213,175.225 219.213 C 175.309 219.213,175.520 219.578,175.694 220.023 C 175.869 220.469,176.097 220.833,176.201 220.833 C 176.304 220.833,176.389 220.989,176.389 221.179 C 176.389 221.368,176.597 221.654,176.852 221.813 C 177.106 221.972,177.315 222.221,177.315 222.366 C 177.315 222.684,180.290 225.706,181.461 226.578 C 181.918 226.918,182.344 227.249,182.407 227.313 C 182.605 227.513,183.413 227.994,184.259 228.416 C 184.705 228.638,185.104 228.898,185.147 228.993 C 185.189 229.089,185.349 229.167,185.503 229.167 C 185.656 229.167,186.179 229.369,186.663 229.616 C 187.148 229.863,187.874 230.137,188.275 230.224 C 188.676 230.311,189.060 230.469,189.128 230.575 C 189.629 231.358,193.106 231.481,214.584 231.481 L 235.821 231.481 236.123 229.282 C 236.289 228.073,236.496 227.083,236.582 227.083 C 236.669 227.083,236.871 226.120,237.031 224.942 C 237.191 223.764,237.402 222.749,237.499 222.685 C 237.596 222.622,237.751 221.918,237.842 221.123 L 238.008 219.676 218.773 219.676 C 208.193 219.676,199.537 219.587,199.537 219.478 C 199.537 219.369,198.799 219.218,197.897 219.143 C 196.995 219.067,196.135 218.910,195.987 218.794 C 195.839 218.677,195.408 218.508,195.031 218.418 C 194.143 218.205,191.872 217.132,191.477 216.739 C 191.308 216.572,191.082 216.435,190.973 216.435 C 190.655 216.435,187.767 213.441,187.611 212.949 C 187.533 212.702,187.379 212.500,187.269 212.500 C 187.158 212.500,186.997 212.266,186.910 211.979 C 186.822 211.693,186.625 211.302,186.472 211.111 C 186.319 210.920,186.052 210.295,185.879 209.722 C 185.706 209.149,185.479 208.566,185.375 208.425 C 185.271 208.285,185.118 207.530,185.036 206.747 C 184.955 205.964,184.798 205.324,184.689 205.324 C 184.580 205.324,184.491 204.282,184.491 203.009 C 184.491 201.736,184.580 200.694,184.689 200.694 C 184.798 200.694,184.957 199.944,185.042 199.026 C 185.128 198.109,185.279 197.301,185.379 197.232 C 185.479 197.163,185.696 196.481,185.862 195.718 C 186.027 194.954,186.236 194.225,186.327 194.097 C 186.417 193.970,186.630 193.423,186.801 192.882 C 186.972 192.341,187.182 191.898,187.269 191.898 C 187.356 191.898,187.552 191.481,187.704 190.972 C 187.857 190.463,188.073 190.046,188.185 190.046 C 188.297 190.046,188.458 189.734,188.542 189.352 C 188.626 188.970,188.793 188.657,188.913 188.657 C 189.033 188.657,189.231 188.397,189.352 188.079 C 189.473 187.760,189.662 187.500,189.772 187.500 C 189.882 187.500,190.085 187.252,190.223 186.949 C 190.749 185.795,195.350 181.203,196.275 180.909 C 196.654 180.789,197.003 180.542,198.081 179.634 C 198.234 179.504,198.434 179.398,198.525 179.398 C 198.673 179.398,201.190 178.264,202.091 177.791 C 202.286 177.689,202.807 177.528,203.248 177.433 C 203.690 177.339,204.155 177.180,204.282 177.081 C 205.029 176.498,208.710 176.389,227.649 176.389 L 247.454 176.389 247.454 175.579 C 247.454 175.133,247.543 174.769,247.652 174.769 C 247.762 174.769,247.981 173.805,248.140 172.627 C 248.299 171.450,248.511 170.382,248.610 170.255 C 248.710 170.127,248.867 169.450,248.960 168.750 C 249.054 168.050,249.213 167.424,249.314 167.360 C 249.415 167.295,249.572 166.488,249.663 165.566 L 249.828 163.889 228.849 163.889 C 215.018 163.889,207.870 163.968,207.870 164.120 M258.796 164.583 C 258.796 164.965,258.706 165.278,258.595 165.278 C 258.484 165.278,258.320 165.928,258.230 166.722 C 258.140 167.517,257.975 168.277,257.863 168.412 C 257.751 168.546,257.532 169.615,257.376 170.787 C 257.220 171.958,257.025 172.917,256.943 172.917 C 256.861 172.917,256.653 173.906,256.481 175.116 C 256.310 176.325,256.096 177.315,256.008 177.315 C 255.919 177.315,255.776 177.937,255.690 178.697 C 255.605 179.457,255.449 180.131,255.344 180.196 C 255.239 180.261,255.022 181.306,254.862 182.518 C 254.701 183.730,254.491 184.722,254.394 184.722 C 254.298 184.722,254.086 185.764,253.924 187.037 C 253.762 188.310,253.552 189.352,253.458 189.352 C 253.363 189.352,253.214 189.977,253.125 190.741 C 253.036 191.505,252.883 192.180,252.785 192.241 C 252.687 192.302,252.470 193.343,252.304 194.555 C 252.137 195.768,251.934 196.759,251.851 196.759 C 251.769 196.759,251.561 197.749,251.389 198.958 C 251.217 200.168,251.002 201.157,250.912 201.157 C 250.822 201.157,250.673 201.861,250.582 202.720 C 250.490 203.579,250.326 204.338,250.218 204.405 C 250.110 204.472,249.894 205.488,249.738 206.662 C 249.582 207.836,249.381 208.796,249.293 208.796 C 249.205 208.796,248.997 209.786,248.831 210.995 C 248.665 212.205,248.457 213.194,248.368 213.194 C 248.280 213.194,248.138 213.816,248.052 214.576 C 247.966 215.336,247.810 216.011,247.705 216.076 C 247.600 216.140,247.383 217.185,247.223 218.398 C 247.062 219.610,246.859 220.602,246.771 220.602 C 246.682 220.602,246.474 221.591,246.308 222.801 C 246.142 224.010,245.926 225.000,245.828 225.000 C 245.729 225.000,245.576 225.729,245.486 226.620 C 245.397 227.512,245.244 228.241,245.147 228.241 C 245.050 228.241,244.905 228.805,244.824 229.494 C 244.743 230.184,244.613 230.913,244.536 231.115 C 244.383 231.513,256.260 231.689,256.876 231.297 C 257.029 231.200,257.282 230.160,257.438 228.986 C 257.594 227.812,257.789 226.852,257.871 226.852 C 257.954 226.852,258.161 225.862,258.333 224.653 C 258.505 223.443,258.720 222.454,258.810 222.454 C 258.900 222.454,259.046 221.778,259.135 220.952 C 259.223 220.125,259.382 219.396,259.489 219.330 C 259.595 219.264,259.810 218.274,259.966 217.128 C 260.123 215.983,260.323 215.046,260.412 215.046 C 260.501 215.046,260.711 214.005,260.880 212.731 C 261.048 211.458,261.265 210.417,261.362 210.417 C 261.458 210.417,261.610 209.740,261.698 208.912 C 261.787 208.084,261.933 207.407,262.023 207.407 C 262.114 207.407,262.328 206.418,262.500 205.208 C 262.672 203.999,262.880 203.009,262.962 203.009 C 263.044 203.009,263.239 202.049,263.395 200.875 C 263.552 199.701,263.768 198.685,263.876 198.618 C 263.984 198.551,264.147 197.792,264.239 196.933 C 264.331 196.073,264.485 195.370,264.581 195.370 C 264.677 195.370,264.892 194.381,265.058 193.171 C 265.224 191.962,265.432 190.972,265.521 190.972 C 265.609 190.972,265.812 189.983,265.972 188.773 C 266.132 187.564,266.341 186.574,266.435 186.574 C 266.530 186.574,266.680 185.924,266.770 185.130 C 266.860 184.335,267.016 183.580,267.117 183.451 C 267.217 183.323,267.432 182.332,267.593 181.250 C 267.754 180.168,267.964 179.178,268.060 179.051 C 268.156 178.924,268.309 178.273,268.399 177.604 L 268.562 176.389 287.348 176.391 C 304.999 176.392,308.860 176.507,309.254 177.044 C 309.321 177.134,309.635 177.341,309.954 177.502 C 311.085 178.077,311.488 178.366,312.164 179.085 C 313.169 180.157,313.657 180.843,313.657 181.181 C 313.657 181.346,313.752 181.481,313.868 181.481 C 314.629 181.481,314.666 189.553,313.907 190.039 C 313.802 190.107,313.642 190.501,313.552 190.914 C 313.463 191.328,313.310 191.667,313.213 191.667 C 313.116 191.667,312.900 192.083,312.731 192.593 C 312.563 193.102,312.364 193.519,312.288 193.519 C 312.212 193.519,312.010 193.835,311.839 194.222 C 311.350 195.325,307.875 198.611,307.197 198.611 C 307.071 198.611,306.884 198.753,306.782 198.926 C 306.681 199.099,306.181 199.373,305.671 199.534 C 305.162 199.696,304.641 199.907,304.514 200.003 C 304.387 200.099,303.918 200.255,303.472 200.350 C 303.027 200.444,302.588 200.638,302.497 200.781 C 302.378 200.969,297.960 201.061,286.727 201.111 L 271.122 201.181 270.967 202.551 C 270.882 203.305,270.726 203.974,270.622 204.039 C 270.517 204.103,270.300 205.148,270.140 206.361 C 269.979 207.573,269.765 208.565,269.665 208.565 C 269.564 208.565,269.409 209.243,269.320 210.073 C 269.231 210.902,269.066 211.637,268.954 211.707 C 268.842 211.776,268.750 212.147,268.750 212.530 L 268.750 213.227 285.243 213.153 C 297.623 213.097,301.852 213.009,302.199 212.799 C 302.454 212.645,303.417 212.401,304.340 212.257 C 305.263 212.113,306.019 211.910,306.019 211.805 C 306.019 211.700,306.435 211.544,306.944 211.458 C 307.454 211.372,307.870 211.227,307.870 211.135 C 307.870 211.042,308.391 210.834,309.028 210.671 C 309.664 210.507,310.185 210.296,310.185 210.201 C 310.185 210.106,310.602 209.890,311.111 209.722 C 311.620 209.554,312.037 209.329,312.037 209.222 C 312.037 209.115,312.188 209.028,312.373 209.028 C 312.557 209.028,312.792 208.897,312.894 208.738 C 312.995 208.579,313.391 208.292,313.773 208.101 C 314.155 207.911,314.587 207.650,314.733 207.523 C 314.879 207.396,315.492 206.875,316.097 206.366 C 318.092 204.685,320.681 201.801,321.296 200.575 C 321.487 200.195,321.773 199.801,321.932 199.699 C 322.092 199.597,322.222 199.374,322.222 199.203 C 322.222 199.032,322.369 198.836,322.548 198.767 C 322.727 198.699,322.943 198.323,323.029 197.932 C 323.115 197.542,323.277 197.222,323.389 197.222 C 323.501 197.222,323.717 196.806,323.870 196.296 C 324.023 195.787,324.235 195.370,324.342 195.370 C 324.449 195.370,324.537 195.208,324.537 195.010 C 324.537 194.812,324.734 194.214,324.974 193.679 C 325.214 193.145,325.486 192.344,325.579 191.898 C 325.672 191.453,325.835 190.979,325.942 190.845 C 326.049 190.712,326.265 189.618,326.422 188.415 C 326.579 187.211,326.801 186.163,326.915 186.085 C 327.195 185.895,327.191 177.758,326.911 177.574 C 326.790 177.495,326.625 176.932,326.544 176.324 C 326.462 175.715,326.134 174.644,325.814 173.944 C 325.493 173.244,325.231 172.570,325.231 172.447 C 325.231 172.323,325.127 172.222,325.000 172.222 C 324.873 172.222,324.769 172.063,324.769 171.868 C 324.769 171.673,324.612 171.453,324.421 171.380 C 324.230 171.307,324.074 171.115,324.074 170.954 C 324.074 170.625,321.359 167.824,321.039 167.824 C 320.926 167.824,320.632 167.642,320.387 167.419 C 319.509 166.622,319.244 166.452,318.654 166.304 C 318.325 166.221,318.056 166.068,318.056 165.964 C 318.056 165.859,317.483 165.646,316.782 165.489 C 316.082 165.332,315.509 165.131,315.509 165.041 C 315.509 164.835,313.132 164.352,312.114 164.352 C 311.690 164.352,311.343 164.248,311.343 164.120 C 311.343 163.967,302.431 163.889,285.069 163.889 L 258.796 163.889 258.796 164.583 " stroke="none" fill="#fcfcfc" fill-rule="evenodd"></path><path id="path1" d="M376.382 28.814 C 375.333 29.870,374.302 30.714,373.761 30.961 C 373.424 31.114,373.148 31.346,373.148 31.477 C 373.148 31.607,373.030 31.713,372.885 31.713 C 372.741 31.713,372.390 31.947,372.106 32.234 C 371.822 32.520,370.951 33.221,370.170 33.791 C 369.389 34.361,368.750 34.908,368.750 35.006 C 368.750 35.105,368.590 35.185,368.396 35.185 C 368.201 35.185,367.983 35.337,367.911 35.524 C 367.840 35.710,367.594 35.921,367.366 35.994 C 367.137 36.067,366.691 36.357,366.375 36.639 C 365.367 37.539,364.417 38.303,363.988 38.557 C 363.389 38.913,363.026 39.559,363.311 39.764 C 363.439 39.855,363.855 40.399,364.236 40.972 C 364.617 41.545,364.982 42.066,365.046 42.130 C 365.189 42.272,365.717 43.188,366.148 44.039 C 366.324 44.389,366.549 44.676,366.647 44.676 C 366.744 44.676,366.962 45.093,367.130 45.602 C 367.298 46.111,367.506 46.528,367.593 46.528 C 367.680 46.528,367.876 46.944,368.028 47.454 C 368.181 47.963,368.397 48.380,368.509 48.380 C 368.622 48.380,368.782 48.692,368.866 49.074 C 368.950 49.456,369.114 49.769,369.231 49.769 C 369.349 49.769,369.444 49.925,369.444 50.116 C 369.444 50.492,369.911 50.580,370.266 50.272 C 370.387 50.167,370.929 49.942,371.470 49.772 C 372.011 49.602,372.454 49.387,372.454 49.294 C 372.454 49.201,372.818 49.057,373.264 48.974 C 373.709 48.890,374.074 48.742,374.074 48.644 C 374.074 48.547,374.595 48.334,375.231 48.171 C 375.868 48.007,376.389 47.792,376.389 47.693 C 376.389 47.593,376.717 47.446,377.118 47.366 C 377.834 47.223,379.865 46.317,380.093 46.040 C 380.156 45.963,380.755 45.761,381.424 45.591 C 382.092 45.422,382.639 45.210,382.639 45.120 C 382.639 45.031,382.922 44.887,383.267 44.800 C 384.449 44.503,385.880 43.739,385.880 43.404 C 385.880 43.044,384.968 41.163,384.701 40.972 C 384.612 40.909,384.423 40.426,384.282 39.900 C 384.140 39.373,383.876 38.819,383.694 38.668 C 383.512 38.517,383.296 38.089,383.214 37.715 C 383.132 37.342,382.969 37.037,382.852 37.037 C 382.735 37.037,382.639 36.888,382.639 36.706 C 382.639 36.524,382.504 36.238,382.340 36.070 C 382.175 35.902,381.902 35.425,381.733 35.012 C 381.564 34.598,381.353 34.259,381.265 34.259 C 381.177 34.259,380.964 33.899,380.791 33.459 C 380.618 33.018,380.338 32.605,380.169 32.540 C 380.000 32.475,379.861 32.262,379.861 32.067 C 379.861 31.872,379.774 31.713,379.667 31.713 C 379.560 31.713,379.352 31.449,379.205 31.126 C 378.936 30.535,378.698 30.205,377.951 29.382 C 377.729 29.136,377.546 28.831,377.546 28.704 C 377.546 28.353,376.766 28.427,376.382 28.814 M15.654 52.807 C 15.574 53.205,15.509 53.777,15.509 54.080 C 15.509 54.382,15.414 54.630,15.298 54.630 C 15.182 54.630,14.959 55.567,14.802 56.713 C 14.646 57.859,14.438 58.796,14.342 58.796 C 14.245 58.796,14.092 59.447,14.002 60.243 C 13.911 61.039,13.754 61.794,13.652 61.921 C 13.550 62.049,13.340 63.038,13.186 64.120 C 13.031 65.203,12.824 66.192,12.725 66.319 C 12.626 66.447,12.421 67.384,12.269 68.403 C 12.116 69.421,11.906 70.360,11.801 70.488 C 11.696 70.617,11.536 71.372,11.446 72.167 C 11.356 72.961,11.205 73.611,11.110 73.611 C 11.016 73.611,10.802 74.601,10.636 75.810 C 10.470 77.020,10.260 78.009,10.170 78.009 C 10.080 78.009,9.873 79.051,9.711 80.324 C 9.549 81.597,9.334 82.639,9.233 82.639 C 9.133 82.639,8.980 83.264,8.894 84.028 C 8.807 84.792,8.659 85.417,8.564 85.417 C 8.469 85.417,8.256 86.406,8.090 87.616 C 7.924 88.825,7.715 89.815,7.627 89.815 C 7.538 89.815,7.330 90.804,7.164 92.014 C 6.998 93.223,6.787 94.213,6.694 94.213 C 6.602 94.213,6.452 94.864,6.361 95.660 C 6.269 96.455,6.108 97.162,6.002 97.229 C 5.896 97.297,5.681 98.312,5.525 99.486 C 5.369 100.660,5.168 101.620,5.080 101.620 C 4.992 101.620,4.784 102.610,4.618 103.819 C 4.452 105.029,4.244 106.019,4.155 106.019 C 4.067 106.019,3.864 107.008,3.704 108.218 C 3.544 109.427,3.332 110.417,3.234 110.417 C 3.135 110.417,2.980 111.068,2.888 111.863 C 2.797 112.659,2.635 113.365,2.529 113.433 C 2.424 113.500,2.209 114.516,2.053 115.690 C 1.896 116.864,1.698 117.824,1.612 117.824 C 1.526 117.824,1.320 118.788,1.153 119.965 C 0.987 121.143,0.779 122.159,0.690 122.222 C 0.519 122.346,-0.000 125.569,-0.000 126.514 L 0.000 127.083 7.424 127.083 C 15.986 127.083,15.336 127.274,15.751 124.635 C 15.909 123.626,16.117 122.697,16.214 122.569 C 16.310 122.442,16.524 121.531,16.689 120.544 C 16.854 119.557,17.059 118.750,17.145 118.750 C 17.231 118.750,17.372 118.128,17.458 117.368 C 17.544 116.608,17.703 115.932,17.811 115.865 C 17.919 115.798,18.133 114.857,18.287 113.774 C 18.441 112.692,18.645 111.806,18.742 111.806 C 18.838 111.806,19.056 110.868,19.226 109.722 C 19.395 108.576,19.605 107.639,19.691 107.639 C 19.777 107.639,19.920 107.095,20.008 106.429 C 20.096 105.764,20.252 105.113,20.355 104.983 C 20.457 104.852,20.678 103.886,20.845 102.836 C 21.012 101.785,21.234 100.926,21.338 100.926 C 21.442 100.926,21.528 100.752,21.528 100.540 C 21.528 100.327,21.643 99.494,21.783 98.688 L 22.038 97.222 27.224 97.222 L 32.409 97.222 32.688 98.264 C 32.841 98.837,33.038 99.306,33.125 99.306 C 33.212 99.306,33.354 99.588,33.441 99.934 C 33.528 100.280,33.811 101.035,34.071 101.612 C 34.331 102.190,34.740 103.099,34.980 103.633 C 35.220 104.167,35.417 104.714,35.417 104.848 C 35.417 104.983,35.513 105.093,35.630 105.093 C 35.747 105.093,35.914 105.431,36.002 105.845 C 36.089 106.259,36.347 106.910,36.574 107.292 C 36.801 107.674,37.059 108.325,37.146 108.738 C 37.234 109.152,37.393 109.491,37.500 109.491 C 37.607 109.491,37.763 109.803,37.847 110.185 C 37.931 110.567,38.084 110.880,38.187 110.880 C 38.290 110.880,38.442 111.241,38.525 111.682 C 38.608 112.124,38.808 112.619,38.969 112.782 C 39.131 112.945,39.401 113.573,39.569 114.178 C 39.737 114.783,39.954 115.278,40.051 115.278 C 40.147 115.278,40.295 115.642,40.378 116.088 C 40.462 116.534,40.618 116.898,40.726 116.898 C 40.833 116.898,41.060 117.367,41.229 117.940 C 41.398 118.513,41.606 118.981,41.692 118.981 C 41.778 118.981,41.919 119.264,42.006 119.610 C 42.092 119.956,42.364 120.679,42.610 121.218 C 42.855 121.756,43.056 122.307,43.056 122.441 C 43.056 122.575,43.158 122.685,43.284 122.685 C 43.409 122.685,43.630 123.154,43.774 123.727 C 43.918 124.300,44.120 124.769,44.222 124.769 C 44.324 124.769,44.481 125.103,44.571 125.512 C 44.732 126.243,45.554 128.015,45.838 128.241 C 45.918 128.304,46.119 128.851,46.286 129.456 C 46.452 130.061,46.657 130.556,46.741 130.556 C 46.826 130.556,47.020 131.024,47.173 131.597 C 47.327 132.170,47.556 132.639,47.684 132.639 C 47.812 132.639,47.917 132.892,47.917 133.201 C 47.917 133.510,48.064 133.910,48.244 134.090 C 48.423 134.270,48.705 134.876,48.869 135.438 C 49.033 135.999,49.228 136.510,49.302 136.574 C 49.376 136.638,49.739 137.419,50.109 138.310 C 50.479 139.201,50.855 139.983,50.946 140.046 C 51.036 140.110,51.225 140.593,51.367 141.119 C 51.508 141.645,51.779 142.205,51.969 142.362 C 52.159 142.520,52.315 142.783,52.315 142.947 C 52.315 143.111,52.731 143.773,53.241 144.417 C 53.750 145.061,54.167 145.646,54.167 145.716 C 54.167 145.943,56.696 148.380,56.931 148.380 C 57.057 148.380,57.270 148.587,57.406 148.840 C 57.541 149.093,57.910 149.365,58.224 149.444 C 58.539 149.523,58.796 149.686,58.796 149.806 C 58.796 149.926,59.109 150.133,59.491 150.266 C 59.873 150.399,60.185 150.594,60.185 150.699 C 60.185 150.803,60.498 150.958,60.880 151.042 C 61.262 151.126,61.574 151.280,61.574 151.384 C 61.574 151.489,62.121 151.704,62.789 151.862 C 63.458 152.021,64.059 152.234,64.126 152.335 C 64.548 152.978,70.966 153.006,219.528 153.008 L 371.811 153.009 371.652 152.141 C 371.565 151.664,371.362 151.065,371.202 150.810 C 371.041 150.556,370.766 149.852,370.590 149.248 C 370.413 148.643,370.188 148.148,370.088 148.148 C 369.989 148.148,369.907 147.895,369.907 147.586 C 369.907 147.277,369.767 146.883,369.595 146.711 C 369.423 146.539,369.143 145.855,368.972 145.190 C 368.802 144.525,368.586 143.981,368.493 143.981 C 368.400 143.981,368.252 143.643,368.163 143.229 C 368.075 142.815,367.804 142.034,367.561 141.493 L 367.118 140.509 220.017 140.509 C 138.056 140.509,72.917 140.421,72.917 140.310 C 72.917 140.201,72.327 140.050,71.607 139.976 C 70.887 139.902,70.235 139.739,70.158 139.615 C 70.081 139.490,69.725 139.315,69.366 139.225 C 69.006 139.135,68.658 138.918,68.591 138.743 C 68.524 138.569,68.350 138.426,68.204 138.426 C 67.855 138.425,66.260 136.720,65.928 135.991 C 65.784 135.675,65.587 135.417,65.490 135.417 C 65.394 135.417,65.240 135.078,65.150 134.664 C 65.059 134.251,64.790 133.549,64.552 133.105 C 64.315 132.662,64.120 132.167,64.120 132.006 C 64.120 131.845,64.039 131.713,63.939 131.713 C 63.840 131.713,63.620 131.244,63.451 130.671 C 63.282 130.098,63.070 129.630,62.981 129.630 C 62.892 129.630,62.686 129.109,62.522 128.472 C 62.359 127.836,62.131 127.315,62.016 127.315 C 61.900 127.315,61.802 127.185,61.798 127.025 C 61.794 126.866,61.535 126.215,61.222 125.579 C 60.909 124.942,60.651 124.291,60.650 124.132 C 60.649 123.973,60.544 123.843,60.417 123.843 C 60.289 123.843,60.185 123.656,60.185 123.429 C 60.185 123.201,59.988 122.628,59.747 122.156 C 59.507 121.684,59.244 121.037,59.164 120.718 C 59.084 120.400,58.930 120.139,58.822 120.139 C 58.714 120.139,58.489 119.644,58.323 119.039 C 58.156 118.435,57.957 117.888,57.880 117.824 C 57.802 117.760,57.437 116.979,57.067 116.088 C 56.697 115.197,56.317 114.414,56.224 114.349 C 56.130 114.283,55.929 113.737,55.777 113.134 C 55.625 112.530,55.410 112.037,55.300 112.037 C 55.190 112.037,54.981 111.568,54.837 110.995 C 54.693 110.422,54.491 109.954,54.389 109.954 C 54.287 109.954,54.135 109.641,54.051 109.259 C 53.967 108.877,53.814 108.565,53.711 108.565 C 53.608 108.565,53.456 108.204,53.373 107.762 C 53.290 107.321,53.090 106.826,52.929 106.663 C 52.768 106.499,52.498 105.871,52.329 105.266 C 52.161 104.661,51.937 104.167,51.832 104.167 C 51.727 104.167,51.573 103.802,51.489 103.356 C 51.406 102.911,51.261 102.546,51.169 102.546 C 51.076 102.546,50.863 102.130,50.694 101.620 C 50.526 101.111,50.321 100.694,50.238 100.694 C 50.155 100.694,49.954 100.174,49.791 99.537 C 49.628 98.900,49.411 98.380,49.310 98.380 C 49.209 98.380,49.057 98.015,48.974 97.569 C 48.890 97.124,48.726 96.759,48.610 96.759 C 48.493 96.759,48.275 96.350,48.125 95.849 C 47.800 94.761,48.019 94.444,49.421 93.981 C 49.924 93.816,50.475 93.540,50.647 93.368 C 50.818 93.196,51.108 93.056,51.290 93.056 C 51.472 93.056,51.620 92.968,51.620 92.861 C 51.620 92.754,51.885 92.546,52.208 92.399 C 53.295 91.904,57.785 87.547,58.333 86.455 C 58.524 86.075,58.810 85.681,58.970 85.579 C 59.129 85.477,59.259 85.254,59.259 85.083 C 59.259 84.912,59.406 84.716,59.585 84.647 C 59.764 84.578,59.980 84.202,60.066 83.812 C 60.152 83.421,60.301 83.102,60.398 83.102 C 60.495 83.102,60.712 82.685,60.880 82.176 C 61.048 81.667,61.261 81.250,61.354 81.250 C 61.447 81.250,61.590 80.890,61.673 80.450 C 61.755 80.009,61.971 79.364,62.152 79.015 C 62.333 78.666,62.551 77.672,62.636 76.806 C 62.721 75.940,62.882 75.231,62.993 75.231 C 63.254 75.231,63.258 69.048,62.997 68.887 C 62.888 68.819,62.733 68.133,62.652 67.362 C 62.572 66.591,62.296 65.499,62.040 64.937 C 61.784 64.374,61.574 63.752,61.574 63.554 C 61.574 63.356,61.489 63.194,61.386 63.194 C 61.282 63.194,61.054 62.830,60.880 62.384 C 60.705 61.939,60.502 61.574,60.430 61.574 C 60.357 61.574,60.162 61.267,59.997 60.893 C 59.638 60.082,55.485 55.869,54.845 55.666 C 54.599 55.588,54.398 55.440,54.398 55.337 C 54.398 55.233,54.086 55.019,53.704 54.861 C 53.322 54.703,53.009 54.492,53.009 54.391 C 53.009 54.291,52.488 54.076,51.852 53.913 C 51.215 53.750,50.694 53.540,50.694 53.447 C 50.694 53.354,50.356 53.205,49.942 53.117 C 49.528 53.028,49.074 52.863,48.932 52.749 C 48.299 52.241,44.288 52.097,30.527 52.090 L 15.799 52.083 15.654 52.807 M387.201 52.655 C 386.845 52.840,386.194 53.060,385.754 53.142 C 385.314 53.225,384.954 53.361,384.954 53.445 C 384.954 53.529,384.254 53.731,383.398 53.893 C 382.543 54.055,381.787 54.275,381.720 54.382 C 381.652 54.488,380.972 54.703,380.208 54.859 C 379.444 55.015,378.710 55.231,378.576 55.339 C 378.443 55.447,377.896 55.605,377.361 55.691 C 376.826 55.776,376.389 55.926,376.389 56.023 C 376.389 56.120,375.712 56.334,374.884 56.499 C 374.057 56.663,373.380 56.883,373.380 56.987 C 373.380 57.091,373.125 57.176,372.815 57.176 C 372.504 57.176,372.197 57.260,372.133 57.364 C 371.987 57.600,372.498 60.723,372.708 60.880 C 372.899 61.021,373.380 65.329,373.380 66.894 C 373.380 67.518,373.484 68.093,373.611 68.171 C 373.895 68.346,373.928 74.465,373.646 74.576 C 373.537 74.618,373.388 75.616,373.313 76.794 L 373.178 78.935 382.191 78.935 L 391.204 78.935 391.204 76.736 C 391.204 75.424,391.297 74.537,391.435 74.537 C 391.578 74.537,391.667 73.341,391.667 71.412 C 391.667 69.693,391.579 68.287,391.471 68.287 C 391.364 68.287,391.205 66.651,391.119 64.652 C 391.033 62.652,390.877 60.960,390.773 60.890 C 390.669 60.821,390.447 59.644,390.281 58.275 C 390.114 56.907,389.889 55.787,389.781 55.787 C 389.672 55.787,389.583 55.532,389.583 55.220 C 389.583 52.672,388.795 51.823,387.201 52.655 M171.147 63.612 C 171.004 63.841,170.756 64.987,170.596 66.158 C 170.436 67.329,170.232 68.287,170.143 68.287 C 170.055 68.287,169.844 69.329,169.676 70.602 C 169.507 71.875,169.293 72.917,169.199 72.917 C 169.105 72.917,168.955 73.646,168.866 74.537 C 168.776 75.428,168.628 76.157,168.537 76.157 C 168.445 76.157,168.243 77.116,168.087 78.287 C 167.931 79.459,167.714 80.527,167.604 80.660 C 167.495 80.794,167.273 81.918,167.112 83.160 C 166.950 84.401,166.739 85.417,166.643 85.417 C 166.546 85.417,166.434 85.636,166.393 85.903 C 166.329 86.329,166.156 86.231,165.004 85.114 C 164.281 84.412,163.474 83.769,163.210 83.686 C 162.947 83.602,162.731 83.446,162.731 83.339 C 162.731 83.232,162.211 83.011,161.574 82.848 C 160.938 82.685,160.417 82.472,160.417 82.374 C 160.417 82.277,160.026 82.127,159.549 82.040 C 159.071 81.954,158.576 81.804,158.449 81.707 C 158.099 81.439,155.070 81.019,153.486 81.019 C 152.705 81.019,152.083 80.916,152.083 80.787 C 152.083 80.660,151.510 80.556,150.810 80.556 C 150.110 80.556,149.537 80.660,149.537 80.787 C 149.537 80.916,148.899 81.019,148.090 81.020 C 146.433 81.022,143.765 81.413,143.411 81.705 C 143.279 81.814,142.781 81.976,142.303 82.065 C 141.826 82.154,141.435 82.310,141.435 82.410 C 141.435 82.511,140.914 82.718,140.278 82.870 C 139.641 83.023,139.120 83.221,139.120 83.310 C 139.120 83.399,138.756 83.604,138.310 83.765 C 137.865 83.926,137.500 84.155,137.500 84.274 C 137.500 84.393,137.351 84.491,137.169 84.491 C 136.987 84.491,136.699 84.631,136.528 84.801 C 136.357 84.972,135.966 85.247,135.658 85.411 C 134.980 85.774,134.684 86.005,133.652 86.979 C 133.214 87.393,132.780 87.733,132.689 87.734 C 132.454 87.738,130.840 89.324,129.745 90.627 C 129.236 91.234,128.637 91.895,128.414 92.097 C 128.192 92.299,128.009 92.600,128.009 92.767 C 128.009 92.934,127.853 93.130,127.662 93.203 C 127.471 93.277,127.315 93.425,127.315 93.533 C 127.315 93.726,126.389 95.218,125.929 95.766 C 125.800 95.919,125.694 96.121,125.694 96.213 C 125.694 96.306,125.500 96.805,125.262 97.323 C 124.362 99.284,123.887 100.613,123.725 101.620 C 123.634 102.193,123.440 102.808,123.296 102.987 C 122.931 103.437,122.928 114.381,123.292 114.837 C 123.434 115.016,123.626 115.579,123.718 116.088 C 123.809 116.597,124.083 117.451,124.327 117.985 C 124.570 118.519,124.769 119.066,124.769 119.200 C 124.769 119.335,124.856 119.444,124.963 119.444 C 125.070 119.444,125.293 119.856,125.459 120.358 C 125.625 120.861,125.902 121.326,126.075 121.393 C 126.248 121.459,126.389 121.636,126.389 121.786 C 126.389 122.421,130.332 126.620,130.928 126.620 C 131.105 126.620,131.250 126.710,131.250 126.820 C 131.250 126.930,131.693 127.321,132.234 127.688 C 132.775 128.055,133.270 128.419,133.333 128.496 C 133.397 128.573,133.863 128.772,134.369 128.937 C 134.874 129.102,135.419 129.368,135.579 129.528 C 135.739 129.688,136.315 129.893,136.859 129.984 C 137.402 130.075,137.905 130.240,137.976 130.351 C 138.046 130.461,138.619 130.621,139.249 130.705 C 139.878 130.789,140.459 130.958,140.539 131.081 C 140.733 131.376,149.082 131.376,149.275 131.081 C 149.356 130.958,149.936 130.789,150.566 130.705 C 151.196 130.621,151.769 130.464,151.839 130.356 C 151.910 130.248,152.514 130.030,153.183 129.872 C 153.851 129.713,154.398 129.490,154.398 129.375 C 154.398 129.260,154.519 129.167,154.666 129.167 C 154.813 129.167,155.275 128.906,155.692 128.588 C 156.109 128.270,156.517 128.009,156.597 128.009 C 156.678 128.009,157.103 127.629,157.542 127.164 C 158.341 126.316,158.902 126.259,158.391 127.078 C 158.241 127.318,158.048 128.198,157.962 129.035 L 157.806 130.556 165.130 130.556 L 172.454 130.556 172.454 129.759 C 172.454 129.321,172.546 128.905,172.659 128.836 C 172.772 128.766,172.997 127.666,173.159 126.392 C 173.322 125.117,173.530 124.074,173.622 124.074 C 173.715 124.074,173.923 123.032,174.085 121.759 C 174.248 120.486,174.457 119.444,174.551 119.444 C 174.645 119.444,174.795 118.715,174.884 117.824 C 174.974 116.933,175.125 116.204,175.221 116.204 C 175.317 116.204,175.530 115.240,175.694 114.063 C 175.859 112.885,176.072 111.817,176.169 111.690 C 176.265 111.563,176.477 110.443,176.638 109.201 C 176.800 107.960,177.007 106.944,177.100 106.944 C 177.192 106.944,177.341 106.215,177.431 105.324 C 177.520 104.433,177.675 103.704,177.775 103.704 C 177.875 103.704,178.090 102.662,178.252 101.389 C 178.414 100.116,178.620 99.074,178.708 99.074 C 178.797 99.074,179.000 98.111,179.159 96.933 C 179.318 95.755,179.531 94.688,179.632 94.560 C 179.734 94.433,179.891 93.704,179.983 92.940 C 180.075 92.176,180.231 91.447,180.330 91.319 C 180.430 91.192,180.643 90.072,180.805 88.831 C 180.966 87.590,181.168 86.574,181.253 86.574 C 181.337 86.574,181.544 85.532,181.713 84.259 C 181.881 82.986,182.096 81.944,182.191 81.944 C 182.285 81.944,182.436 81.293,182.526 80.498 C 182.617 79.702,182.771 78.947,182.868 78.819 C 182.966 78.692,183.179 77.650,183.342 76.505 C 183.504 75.359,183.715 74.317,183.810 74.190 C 183.905 74.063,184.115 72.943,184.277 71.701 C 184.439 70.460,184.645 69.444,184.735 69.444 C 184.826 69.444,184.975 68.741,185.067 67.882 C 185.158 67.023,185.319 66.266,185.423 66.201 C 185.527 66.136,185.686 65.433,185.776 64.639 L 185.939 63.194 178.674 63.194 C 171.924 63.194,171.389 63.224,171.147 63.612 M42.080 66.342 C 42.171 66.481,42.544 66.669,42.910 66.758 C 43.275 66.848,43.715 67.046,43.887 67.199 C 44.060 67.352,44.607 67.789,45.103 68.171 C 45.600 68.553,46.130 69.204,46.282 69.618 C 46.434 70.032,46.647 70.370,46.755 70.370 C 47.019 70.370,47.454 72.457,47.454 73.727 C 47.454 74.989,47.020 77.083,46.758 77.083 C 46.652 77.083,46.494 77.403,46.409 77.793 C 46.323 78.184,46.106 78.560,45.927 78.628 C 45.748 78.697,45.602 78.887,45.602 79.051 C 45.602 79.431,42.987 81.862,42.367 82.058 C 42.109 82.140,41.898 82.297,41.898 82.406 C 41.898 82.516,41.325 82.734,40.625 82.891 C 39.925 83.047,39.352 83.263,39.352 83.370 C 39.352 83.477,36.113 83.565,32.154 83.565 L 24.957 83.565 25.120 82.350 C 25.210 81.681,25.365 81.030,25.464 80.903 C 25.563 80.775,25.775 79.708,25.934 78.530 C 26.093 77.352,26.296 76.389,26.384 76.389 C 26.473 76.389,26.683 75.347,26.852 74.074 C 27.020 72.801,27.235 71.759,27.329 71.759 C 27.423 71.759,27.573 71.030,27.662 70.139 C 27.752 69.248,27.918 68.519,28.033 68.519 C 28.147 68.519,28.241 68.271,28.241 67.969 C 28.241 67.666,28.307 67.088,28.388 66.683 L 28.535 65.947 35.225 66.017 C 39.748 66.065,41.969 66.170,42.080 66.342 M92.130 80.736 C 92.130 80.835,91.166 81.047,89.988 81.207 C 88.811 81.367,87.813 81.598,87.770 81.721 C 87.728 81.844,87.467 81.948,87.191 81.952 C 86.916 81.956,86.169 82.215,85.532 82.528 C 84.896 82.841,84.245 83.099,84.086 83.100 C 83.927 83.101,83.796 83.185,83.796 83.287 C 83.796 83.389,83.413 83.610,82.944 83.780 C 82.475 83.950,81.980 84.181,81.844 84.294 C 80.723 85.226,80.450 85.419,80.086 85.534 C 79.859 85.607,79.614 85.818,79.543 86.004 C 79.471 86.190,79.297 86.343,79.155 86.343 C 78.826 86.343,74.306 90.860,74.306 91.189 C 74.306 91.324,74.220 91.435,74.115 91.435 C 73.902 91.435,72.685 93.216,72.685 93.528 C 72.685 93.637,72.554 93.810,72.393 93.912 C 72.061 94.123,70.833 96.503,70.833 96.936 C 70.833 97.094,70.737 97.222,70.620 97.222 C 70.503 97.222,70.337 97.561,70.250 97.975 C 70.164 98.388,69.955 98.946,69.786 99.214 C 69.617 99.482,69.405 100.107,69.315 100.603 C 69.226 101.099,69.074 101.609,68.978 101.736 C 68.100 102.898,68.102 115.021,68.981 116.088 C 69.086 116.215,69.245 116.710,69.334 117.188 C 69.423 117.665,69.576 118.056,69.674 118.056 C 69.772 118.056,69.969 118.518,70.111 119.083 C 70.254 119.649,70.476 120.177,70.605 120.257 C 70.735 120.337,70.993 120.733,71.179 121.139 C 71.642 122.142,71.994 122.656,72.743 123.414 C 73.093 123.768,73.380 124.127,73.380 124.210 C 73.380 124.374,75.086 125.991,76.047 126.736 C 76.375 126.991,76.859 127.378,77.123 127.597 C 77.386 127.816,77.797 128.058,78.037 128.134 C 78.276 128.210,78.472 128.365,78.472 128.479 C 78.472 128.592,78.889 128.810,79.398 128.963 C 79.907 129.115,80.324 129.318,80.324 129.413 C 80.324 129.509,80.845 129.720,81.481 129.883 C 82.118 130.047,82.639 130.258,82.639 130.354 C 82.639 130.449,83.108 130.597,83.681 130.683 C 84.253 130.769,84.722 130.918,84.722 131.015 C 84.722 131.352,88.840 131.713,92.680 131.713 C 96.533 131.713,100.926 131.334,100.926 131.002 C 100.926 130.906,101.369 130.755,101.910 130.665 C 102.451 130.576,102.998 130.425,103.125 130.330 C 103.252 130.234,103.666 130.082,104.043 129.992 C 104.421 129.901,105.265 129.574,105.918 129.265 C 106.571 128.956,107.225 128.704,107.372 128.704 C 107.519 128.704,107.639 128.625,107.639 128.529 C 107.639 128.432,107.977 128.205,108.391 128.022 C 108.805 127.840,109.270 127.580,109.425 127.445 C 110.201 126.767,110.416 126.620,110.636 126.620 C 110.768 126.620,111.006 126.412,111.165 126.157 C 111.324 125.903,111.573 125.694,111.718 125.694 C 111.864 125.694,112.385 125.296,112.878 124.810 C 113.370 124.323,113.955 123.857,114.178 123.775 C 115.014 123.467,114.663 122.656,112.847 120.704 C 112.338 120.157,111.730 119.449,111.497 119.131 C 111.263 118.813,110.690 118.135,110.223 117.624 C 109.757 117.113,108.906 116.171,108.333 115.531 C 107.001 114.041,106.702 114.045,105.065 115.567 C 104.826 115.790,104.531 115.972,104.410 115.972 C 104.289 115.972,104.106 116.109,104.005 116.275 C 103.903 116.442,103.481 116.715,103.067 116.882 C 102.653 117.049,102.315 117.264,102.315 117.359 C 102.315 117.454,101.820 117.668,101.215 117.835 C 100.611 118.001,100.056 118.226,99.983 118.334 C 99.909 118.442,99.310 118.595,98.652 118.673 C 97.993 118.751,97.454 118.904,97.454 119.014 C 97.454 119.123,96.152 119.213,94.560 119.213 C 92.969 119.213,91.667 119.123,91.667 119.014 C 91.667 118.904,91.128 118.751,90.469 118.673 C 89.810 118.595,89.211 118.445,89.138 118.340 C 89.065 118.235,88.562 118.019,88.021 117.861 C 87.480 117.703,87.037 117.481,87.037 117.367 C 87.037 117.254,86.835 117.097,86.589 117.019 C 85.956 116.818,84.094 114.932,83.906 114.301 C 83.819 114.011,83.604 113.545,83.429 113.266 C 83.253 112.987,83.041 112.180,82.958 111.472 L 82.807 110.185 100.894 110.185 C 116.345 110.185,118.981 110.137,118.981 109.857 C 118.981 109.677,119.087 109.494,119.216 109.451 C 119.346 109.408,119.517 108.670,119.597 107.811 C 119.677 106.953,119.832 106.250,119.941 106.250 C 120.202 106.250,120.199 98.675,119.938 98.514 C 119.827 98.446,119.666 97.763,119.579 96.996 C 119.492 96.229,119.339 95.602,119.238 95.602 C 119.138 95.602,118.927 95.029,118.770 94.329 C 118.614 93.628,118.405 93.056,118.307 93.056 C 118.209 93.056,118.004 92.639,117.851 92.130 C 117.699 91.620,117.474 91.204,117.352 91.204 C 117.230 91.204,117.130 91.044,117.130 90.849 C 117.130 90.654,116.983 90.438,116.803 90.370 C 116.624 90.301,116.414 89.994,116.338 89.689 C 116.261 89.384,115.991 89.023,115.738 88.887 C 115.485 88.752,115.278 88.523,115.278 88.378 C 115.278 88.120,113.102 85.974,111.923 85.069 C 111.591 84.815,111.097 84.421,110.825 84.195 C 110.554 83.969,110.090 83.723,109.795 83.649 C 109.500 83.575,109.259 83.430,109.259 83.327 C 109.259 83.223,108.946 83.070,108.562 82.986 C 108.179 82.901,107.735 82.702,107.576 82.543 C 107.176 82.143,104.320 81.272,102.835 81.098 C 102.160 81.018,101.552 80.864,101.484 80.754 C 101.331 80.506,92.130 80.488,92.130 80.736 M100.022 93.430 C 100.201 93.573,100.764 93.822,101.273 93.984 C 101.782 94.146,102.282 94.420,102.384 94.593 C 102.486 94.766,102.699 94.907,102.858 94.907 C 103.017 94.907,103.402 95.220,103.715 95.601 C 104.027 95.983,104.472 96.528,104.704 96.813 C 104.936 97.098,105.184 97.622,105.255 97.976 C 105.326 98.331,105.475 98.677,105.585 98.745 C 105.696 98.814,105.787 99.176,105.787 99.551 L 105.787 100.231 94.850 100.228 C 88.834 100.226,84.025 100.148,84.162 100.054 C 84.300 99.961,84.559 99.546,84.739 99.132 C 84.919 98.718,85.131 98.380,85.210 98.380 C 85.289 98.380,85.642 97.963,85.995 97.454 C 86.348 96.944,86.756 96.528,86.901 96.528 C 87.047 96.528,87.427 96.230,87.746 95.866 C 88.065 95.503,88.713 95.065,89.186 94.894 C 89.659 94.723,90.046 94.509,90.046 94.419 C 90.046 94.329,90.567 94.122,91.204 93.959 C 91.840 93.796,92.361 93.584,92.361 93.489 C 92.361 93.040,99.466 92.986,100.022 93.430 M154.167 94.418 C 154.167 94.530,154.740 94.694,155.440 94.782 C 156.140 94.869,156.857 95.084,157.032 95.260 C 157.208 95.435,157.624 95.648,157.958 95.731 C 158.292 95.815,158.565 95.976,158.565 96.090 C 158.565 96.203,158.696 96.296,158.857 96.296 C 159.360 96.296,161.907 98.994,162.162 99.796 C 162.238 100.036,162.386 100.231,162.492 100.231 C 162.757 100.231,163.194 102.881,163.194 104.488 C 163.194 106.113,162.733 109.028,162.475 109.028 C 162.372 109.028,162.162 109.444,162.010 109.954 C 161.857 110.463,161.645 110.880,161.537 110.880 C 161.430 110.880,161.343 111.014,161.343 111.178 C 161.343 111.342,160.952 111.910,160.475 112.440 C 159.997 112.969,159.439 113.590,159.234 113.819 C 158.728 114.387,158.014 114.953,157.373 115.296 C 157.079 115.454,156.698 115.722,156.528 115.893 C 156.357 116.064,156.068 116.204,155.886 116.204 C 155.704 116.204,155.556 116.304,155.556 116.426 C 155.556 116.549,155.113 116.761,154.572 116.899 C 154.031 117.036,153.338 117.275,153.032 117.429 C 152.307 117.794,146.577 117.807,145.811 117.445 C 145.505 117.301,144.812 117.050,144.271 116.887 C 143.730 116.725,143.287 116.505,143.287 116.398 C 143.287 116.291,143.176 116.204,143.040 116.204 C 142.260 116.204,139.496 113.524,139.129 112.411 C 138.977 111.951,138.763 111.574,138.654 111.574 C 138.544 111.574,138.384 111.105,138.298 110.532 C 138.212 109.959,138.050 109.491,137.937 109.491 C 137.824 109.491,137.731 108.553,137.731 107.407 C 137.731 106.262,137.822 105.324,137.933 105.324 C 138.044 105.324,138.198 104.933,138.275 104.456 C 138.352 103.979,138.626 103.175,138.883 102.671 C 139.141 102.167,139.352 101.620,139.352 101.456 C 139.352 101.292,139.459 101.157,139.589 101.157 C 139.720 101.157,139.925 100.897,140.046 100.579 C 140.167 100.260,140.373 100.000,140.504 100.000 C 140.634 100.000,140.741 99.891,140.741 99.758 C 140.741 99.435,142.600 97.578,143.113 97.387 C 143.336 97.304,143.519 97.142,143.519 97.026 C 143.519 96.910,143.831 96.686,144.213 96.528 C 144.595 96.370,144.907 96.151,144.907 96.041 C 144.907 95.932,145.168 95.777,145.486 95.697 C 145.804 95.617,146.065 95.477,146.065 95.385 C 146.065 95.188,148.168 94.676,148.976 94.676 C 149.285 94.676,149.537 94.572,149.537 94.444 C 149.537 94.306,150.463 94.213,151.852 94.213 C 153.125 94.213,154.167 94.305,154.167 94.418 " stroke="none" fill="#fc0c1c" fill-rule="evenodd"></path></g></svg>